<svg width="74" height="75" viewBox="0 0 74 75" fill="none" xmlns="http://www.w3.org/2000/svg">
<rect x="1.40152" y="1.90152" width="71.197" height="71.197" rx="35.5985" stroke="white" stroke-width="2.80303"/>
<path d="M30.8544 13.925L30.9088 14.1281C28.2878 15.4471 26.3104 17.1376 24.9768 19.1999C25.0312 19.4029 24.923 19.5407 24.6523 19.6133L24.6795 19.7148L24.8825 19.6604C25.0602 19.105 25.7926 18.1833 27.0798 16.8952L27.6146 16.8607C27.7319 16.7568 27.8243 16.6957 27.892 16.6776L27.7361 16.5017L27.7089 16.4002C28.8976 15.8278 29.5878 15.4252 29.7794 15.1925L29.9824 15.1381L30.0368 15.3411L30.2399 15.2867L30.0839 15.1109C30.5553 14.8395 31.2818 14.5723 32.2632 14.3093C35.2116 14.009 37.7736 14.2293 39.9491 14.9704C41.9838 15.9306 43.3298 16.6219 43.9871 17.0443L44.143 17.2201L43.9671 17.3761C43.9309 17.2407 43.5537 17.0516 42.8357 16.8087C42.7632 16.5379 42.6254 16.4297 42.4223 16.4841L42.4495 16.5857C43.4241 17.177 44.0001 17.5667 44.1775 17.755L44.2319 17.9581C43.8119 17.7441 43.5792 17.5526 43.5338 17.3834L43.4323 17.4106L43.4595 17.5121C43.8877 17.9596 44.2062 18.2007 44.4151 18.2354C44.3969 18.1678 44.4217 18.1248 44.4894 18.1067C44.5393 18.2928 44.9394 18.8386 45.6898 19.7438C45.7125 19.8285 46.0202 20.4352 46.6128 21.5641C46.5814 21.7176 46.5748 21.8282 46.5929 21.8959L46.3899 21.9503C46.145 21.0366 45.3133 20.0986 43.8948 19.1366C43.4318 18.8979 43.1834 18.7831 43.1496 18.7922L43.1768 18.8937C44.1795 19.3868 44.7035 19.7179 44.7488 19.8872L44.8032 20.0902C44.3832 19.8763 44.1505 19.6847 44.1051 19.5155L44.0036 19.5427L44.0308 19.6443C44.459 20.0918 44.7776 20.3329 44.9864 20.3676C44.9682 20.2999 44.993 20.257 45.0607 20.2389C45.1106 20.425 45.5107 20.9707 46.2611 21.876C46.2838 21.9606 46.5915 22.5674 47.1842 23.6963C47.1527 23.8498 47.1461 23.9604 47.1642 24.0281L46.9612 24.0825C46.7843 23.4226 46.1243 22.5837 44.981 21.5661L44.4933 21.3703C44.6117 21.3386 45.044 22.2747 45.7899 24.1787C45.848 24.5984 45.8008 24.8287 45.6485 24.8695L45.8118 25.4787C45.7852 25.9211 45.6366 26.1786 45.3658 26.2511L45.4746 26.6573L45.7122 27.1377L45.5363 27.2937L45.4348 27.3209C45.1679 26.8664 45.0277 26.6138 45.0141 26.563L45.1156 26.5358C44.898 25.7236 43.9393 24.3118 42.2397 22.3006L40.8435 21.1512L40.7419 21.1784L40.7692 21.28C40.8686 21.3803 40.9387 21.5066 40.9795 21.6589L40.6749 21.7405C40.7248 21.9267 41.0053 22.4319 41.5163 23.2562L41.3405 23.4121C41.2299 23.4055 40.2338 22.8018 38.3523 21.6011C36.9725 20.9189 34.9297 20.7408 32.2239 21.0668L32.0209 21.1212C31.6486 21.2209 31.1706 21.6029 30.5868 22.2672C29.3077 22.7731 28.1988 24.0497 27.2601 26.0968C27.3281 26.3506 27.2042 26.5652 26.8884 26.7404L26.9156 26.842L26.7126 26.8964L26.6582 26.6933L26.4551 26.7477C26.1763 27.6023 26.1389 28.4104 26.3429 29.1719L26.546 29.1175L26.6004 29.3205L26.4789 29.6795C26.7374 30.6441 27.4989 31.4557 28.7637 32.1144L28.7909 32.2159L28.9667 32.0599C29.3278 32.0539 29.5243 32.1101 29.556 32.2285L29.7318 32.0726C29.8718 32.0532 29.9576 32.1028 29.9893 32.2212L30.1652 32.0653C30.2329 32.0471 30.2758 32.0719 30.2939 32.1396L30.4698 31.9837L30.5713 31.9565C30.5985 32.058 30.7702 32.1571 31.0863 32.2538L31.2621 32.0978L31.4924 32.1449L32.1686 31.4196C32.8954 31.4244 33.4574 31.4914 33.8548 31.6207L34.0307 31.4648C34.464 31.4575 34.6943 31.5046 34.7215 31.6062L34.8974 31.4502C35.3035 31.3414 35.8589 31.519 36.5637 31.9831C37.9945 31.9081 39.1253 31.9315 39.956 32.0536L40.0575 32.0264C40.0031 31.8233 40.1451 31.6764 40.4836 31.5857L42.0211 32.0443C42.4345 32.3688 42.8794 32.5398 43.3556 32.5573C43.469 32.9804 44.5418 33.5998 46.5741 34.4155C46.5967 34.5001 46.7774 34.633 47.1162 34.8143C46.9854 34.8675 46.9358 34.9533 46.9676 35.0718C47.0691 35.0446 47.2407 35.1437 47.4825 35.3691L47.5097 35.4706L47.4082 35.4978C47.2051 35.5522 46.9072 35.5233 46.5143 35.4109L46.5415 35.5124C47.1447 36.0037 47.4971 36.2358 47.5986 36.2086L47.6457 35.9783C47.5781 35.9964 47.5351 35.9716 47.517 35.904L47.6185 35.8768C48.2465 36.3251 48.7276 36.6315 49.0619 36.7959C49.0981 36.9313 49.0486 37.0171 48.9132 37.0534C48.8769 36.918 48.7911 36.8684 48.6557 36.9047L48.5542 36.9319C48.9462 37.244 49.4073 37.8822 49.9378 38.8464L49.8362 38.8736C49.2487 38.3056 48.9187 37.8862 48.8462 37.6154L48.5416 37.697L48.5688 37.7986C49.256 38.7389 49.9276 39.756 50.5834 40.8499L50.5363 41.0801C50.8258 41.6192 51.0295 42.1087 51.1474 42.5487L51.1819 43.0836L51.4122 43.1307C51.6396 44.5207 51.7194 45.2248 51.6517 45.2429C51.7557 45.3602 51.8167 45.4527 51.8348 45.5203C51.8059 45.8183 51.7406 45.9809 51.6391 46.0081L51.5375 46.0353C51.4734 45.2544 51.269 44.221 50.9244 42.9349C50.5896 42.2266 50.4131 41.8386 50.3949 41.7709L50.1919 41.8254C51.0851 45.159 50.5946 48.3374 48.7204 51.3606C48.1856 52.4108 47.672 53.2013 47.1795 53.7323L47.0235 53.5565C47.4608 53.0222 47.668 52.7127 47.6454 52.6281C46.3437 54.0651 45.2299 55.0527 44.304 55.591C42.4717 56.8075 40.904 57.5903 39.601 57.9394L39.5466 57.7363C42.4868 56.1868 44.5698 54.2139 45.7959 51.8178L45.6944 51.845C44.7212 53.3572 43.8715 54.3829 43.1454 54.9221C42.9919 54.8907 42.8813 54.884 42.8136 54.9022C42.6964 55.0061 42.6039 55.0672 42.5362 55.0853L42.6922 55.2612L42.7194 55.3627C40.5304 56.6021 39.2245 57.2786 38.8014 57.3919C38.6648 57.356 38.5204 57.3584 38.3681 57.3992L38.1922 57.5551C35.9162 57.6572 34.1985 57.6096 33.0393 57.4123C31.8227 57.3393 29.8198 56.4976 27.0305 54.8872C27.0123 54.8195 26.7796 54.6279 26.3324 54.3125L26.3052 54.211C26.6642 54.3324 27.2559 54.6454 28.0803 55.15C26.6696 54.1496 25.8675 53.4577 25.6741 53.0742L25.1319 52.6754L25.1047 52.5738L25.335 52.621L25.3078 52.5194C23.8115 50.7258 22.8752 49.1267 22.4989 47.7222L22.7019 47.6678C23.0483 48.5543 23.6655 49.3684 24.5533 50.1099C24.404 49.8234 24.0667 48.9707 23.5414 47.5516C23.5027 47.2718 23.568 47.1092 23.7372 47.0639C23.6964 46.9116 23.6262 46.7853 23.5268 46.685C23.5567 46.1873 23.712 45.8192 23.9927 45.5808L23.6463 44.6942L23.9509 44.6126C24.6123 46.5392 25.9191 48.4381 27.8713 50.309L28.4878 50.5791C28.4334 50.3761 28.5077 50.2473 28.7108 50.1929C28.6745 50.0575 28.4031 49.5861 27.8966 48.7787C27.8772 48.6388 27.9268 48.553 28.0453 48.5213C28.1976 48.4805 29.0739 49.0437 30.6744 50.2109C32.2313 50.8094 33.1367 51.0746 33.3905 51.0066C33.4359 51.1758 34.8283 51.0929 37.5679 50.7578L37.6694 50.7306L37.7239 50.9337L37.8254 50.9065C38.1469 50.8203 38.5911 50.4474 39.1579 49.7877C40.1733 49.5156 41.174 48.3769 42.1602 46.3715C42.3632 46.3171 42.4508 45.9672 42.423 45.3217L42.5245 45.2945L42.7548 45.3416C42.7862 45.1881 42.7928 45.0775 42.7747 45.0098L42.9777 44.9554C43.0322 45.1585 43.1609 45.2328 43.364 45.1784C43.4618 43.9189 43.4109 42.9168 43.2114 42.1723C42.8943 41.2597 42.7063 40.6934 42.6474 40.4734C42.7658 40.4417 43.0372 40.9131 43.4616 41.8876L43.5631 41.8604L43.6846 41.5014L43.6574 41.3998C43.6075 41.2137 43.4854 41.0288 43.2911 40.8451L43.3382 40.6148C43.1765 40.3498 42.9529 40.1921 42.6673 40.1416C42.7217 40.3447 42.6812 40.4644 42.5458 40.5006L42.4642 40.196C42.4461 40.1283 42.5543 39.9905 42.7887 39.7826C42.7298 39.5626 42.2578 39.2901 41.3726 38.965L41.4397 38.403C41.3357 38.2857 41.2747 38.1932 41.2565 38.1256L40.8776 38.3359L40.3427 38.3704L40.2412 38.3976L40.2684 38.4991C40.9093 38.4544 41.2502 38.5081 41.291 38.6604C41.3273 38.7958 41.2777 38.8816 41.1424 38.9179L41.1152 38.8164L40.9393 38.9723L40.8378 38.9995C40.6685 39.0449 40.5307 38.9367 40.4243 38.675C40.2935 38.7282 40.2439 38.814 40.2757 38.9325C39.901 38.8878 39.6121 38.8926 39.409 38.9471C39.4453 39.0824 39.3957 39.1683 39.2604 39.2045C37.2164 38.9542 35.9321 38.8993 35.4075 39.0399C35.3894 38.9722 35.1682 38.9589 34.7439 39L34.2634 39.2376C33.045 39.5641 32.3814 39.5242 32.2726 39.1181L32.0696 39.1725L31.8937 39.3285C31.8484 39.1592 31.5413 39.0964 30.9726 39.14L30.7696 39.1944C30.8058 39.3298 31.1038 39.3587 31.6634 39.2813L31.7178 39.4844C29.2626 39.7977 27.9602 39.6751 27.8106 39.1167C27.5567 39.1847 27.2316 39.0542 26.8351 38.7251C26.2754 38.8025 25.9321 38.6043 25.8052 38.1305C25.7375 38.1487 25.4552 38.0429 24.9584 37.8133L24.8569 37.8405L25.0128 38.0164L24.837 38.1723C24.8143 38.0877 24.5387 37.8713 24.0101 37.5233L24.0573 37.293C23.7829 37.1489 23.5864 37.0927 23.468 37.1244L23.5151 36.8942C22.7699 36.5497 22.3565 36.2252 22.2748 35.9206C22.3425 35.9025 22.3673 35.8596 22.3492 35.7919C22.0615 35.869 21.639 35.5106 21.0817 34.7168L21.1832 34.6896C21.567 34.7682 21.8179 35.0274 21.9358 35.4674C22.1207 35.3453 22.2041 35.2504 22.1859 35.1827C20.9789 33.6562 20.3345 32.7406 20.2529 32.436L20.3 32.2057C20.2493 32.2193 20.1205 32.145 19.9138 31.9828L19.6816 30.3038L19.4513 30.2567L19.4168 29.7218L19.0632 28.4019L19.1103 28.1717L18.88 28.1245C18.7697 27.3742 18.7195 26.9161 18.7294 26.7502C18.7113 26.6825 18.6684 26.6578 18.6007 26.6759C18.5599 26.5236 18.5526 26.0903 18.5788 25.3759L18.7819 25.3215L19.0685 27.2035C19.1906 27.3884 19.2855 27.4718 19.3532 27.4536L19.3877 27.9885L19.5237 28.4962C19.6053 28.8008 19.9311 29.4752 20.5012 30.5195L20.6027 30.4923L19.8137 27.5479C19.3376 25.7711 19.9509 23.3215 21.6534 20.1992C22.1514 19.4854 22.6831 18.7625 23.2488 18.0306L23.4047 18.2064C23.017 18.6549 22.8345 18.9214 22.8572 19.0061C23.974 17.6912 25.6854 16.362 27.9916 15.0186C28.1451 15.05 28.2557 15.0566 28.3234 15.0385C28.8443 14.6813 29.688 14.3101 30.8544 13.925ZM26.6066 17.5661L26.6338 17.6677L26.8369 17.6132C26.9541 17.5093 27.0466 17.4482 27.1143 17.4301L27.0871 17.3286L26.9855 17.3558C26.8852 17.4552 26.7589 17.5253 26.6066 17.5661ZM18.5914 24.6108L18.7945 24.5563L18.8217 24.6579C18.858 24.7932 18.8084 24.8791 18.6731 24.9153L18.5914 24.6108ZM19.1628 26.7429L19.3658 26.6885L19.393 26.79C19.4293 26.9254 19.3797 27.0112 19.2444 27.0475L19.1628 26.7429ZM25.7099 26.4033L25.7915 26.7079C25.9269 26.6716 25.9764 26.5858 25.9401 26.4504L25.7099 26.4033ZM20.8349 32.1712C21.6038 33.4162 22.0559 34.0205 22.1913 33.9842L22.1369 33.7812C21.9425 33.5975 21.8295 33.4464 21.7978 33.3279C21.8655 33.3098 21.8902 33.2669 21.8721 33.1992C21.452 32.9853 21.174 32.6245 21.038 32.1168L20.8349 32.1712ZM20.4035 33.8103L20.6066 33.7559L20.8442 34.2364L20.6411 34.2908L20.4035 33.8103ZM22.6339 36.0421L22.6883 36.2451L23.1216 36.2379L23.0672 36.0348L22.6339 36.0421ZM44.6158 33.199C44.7557 33.1797 44.8415 33.2292 44.8733 33.3477L44.9277 33.5508C44.7923 33.587 44.7065 33.5375 44.6702 33.4021L44.6158 33.199ZM48.15 38.6725L48.1772 38.7741C48.3715 38.9578 48.4846 39.1089 48.5163 39.2273L48.6178 39.2001L48.5906 39.0986C48.3963 38.9149 48.2833 38.7638 48.2515 38.6453L48.15 38.6725ZM49.965 38.948L50.168 38.8936L50.4056 39.374L50.2025 39.4284L49.965 38.948ZM49.5137 40.9189L49.6497 41.4265L49.7512 41.3993L49.6152 40.8917L49.5137 40.9189ZM49.8999 41.1418L49.9815 41.4464L50.1846 41.392C50.0806 41.2748 50.0196 41.1823 50.0014 41.1146L49.8999 41.1418ZM43.7502 45.4014L43.9804 45.4485L43.8988 45.1439C43.768 45.1971 43.7184 45.2829 43.7502 45.4014ZM51.6736 46.5429L51.7552 46.8475L51.5521 46.902L51.5249 46.8004C51.5056 46.6605 51.5551 46.5747 51.6736 46.5429ZM43.2124 54.36L43.2669 54.5631C43.4506 54.3687 43.6016 54.2557 43.7201 54.224L43.6929 54.1224L43.4898 54.1769C43.3726 54.2808 43.2801 54.3419 43.2124 54.36Z" fill="white"/>
</svg>
