<svg width="524" height="533" viewBox="0 0 524 533" fill="none" xmlns="http://www.w3.org/2000/svg">
<path d="M262 471.297C406.699 471.297 524 408.174 524 330.308C524 252.443 406.699 189.32 262 189.32C117.301 189.32 0 252.443 0 330.308C0 408.174 117.301 471.297 262 471.297Z" fill="#F5F5F5"/>
<path d="M120.969 354.537C165.081 354.537 200.84 335.091 200.84 311.104C200.84 287.116 165.081 267.67 120.969 267.67C76.8575 267.67 41.098 287.116 41.098 311.104C41.098 335.091 76.8575 354.537 120.969 354.537Z" fill="#E0E0E0"/>
<path d="M212.576 445.505C237.512 445.505 257.726 434.512 257.726 420.951C257.726 407.39 237.512 396.397 212.576 396.397C187.64 396.397 167.426 407.39 167.426 420.951C167.426 434.512 187.64 445.505 212.576 445.505Z" fill="#E0E0E0"/>
<path d="M283.291 423.038H311.346L513.061 312.813L314.303 197.711L223.127 251.78L359.862 327.675L235.14 396.418L283.291 423.038Z" fill="#E0E0E0"/>
<path d="M86.3479 284.179L72.9733 291.427C72.9733 291.427 79.9264 271.006 76.4609 250.343C75.1545 242.539 72.2426 238.648 71.224 236.55C70.2054 234.453 62.3667 221.52 69.4747 215.667C76.5827 209.815 93.0131 221.793 91.8838 253.542C91.3959 263.933 89.5361 274.226 86.3479 284.179Z" fill="#455A64"/>
<path d="M80.1257 288.049C80.0671 288.059 80.0071 288.059 79.9485 288.049C79.816 288.002 79.7082 287.908 79.6483 287.786C79.5883 287.665 79.5808 287.526 79.6274 287.399C79.6274 287.273 84.7979 274.131 84.7979 252.913C84.7979 231.694 73.4273 220.482 73.3166 220.398C73.267 220.351 73.2277 220.295 73.2009 220.234C73.1741 220.173 73.1603 220.107 73.1603 220.041C73.1603 219.975 73.1741 219.909 73.2009 219.848C73.2277 219.787 73.267 219.731 73.3166 219.685C73.4177 219.592 73.5526 219.541 73.693 219.541C73.8334 219.541 73.9684 219.592 74.0695 219.685C74.1913 219.8 85.8608 231.411 85.8608 252.934C85.8608 274.456 80.6682 287.651 80.6128 287.777C80.5692 287.863 80.4996 287.935 80.4129 287.983C80.3262 288.032 80.2262 288.055 80.1257 288.049Z" fill="white"/>
<path d="M83.3918 285.679L61.2485 297.793C61.2485 297.793 51.2175 296.262 52.0922 287.21C52.9669 278.159 57.0744 276.071 52.0922 272.033C47.1099 267.995 45.7371 267.712 46.036 263.81C46.3349 259.908 49.0918 258.241 50.3982 256.709C51.7047 255.178 55.3473 251.979 52.8672 247.27C50.3872 242.56 47.0214 237.956 52.1476 235.858C55.1923 234.599 60.2852 236.267 63.6399 239.749C66.9947 243.232 69.7404 245.738 72.9401 246.577C76.1399 247.416 82.8382 247.553 82.5504 252.871C82.2625 258.188 80.801 259.982 82.1075 262.31C84.5543 266.737 95.3271 269.243 83.3918 285.679Z" fill="#37474F"/>
<path d="M74.3906 291.112C74.3207 291.107 74.2526 291.089 74.1902 291.058C74.1279 291.028 74.0725 290.986 74.0272 290.936C73.9819 290.885 73.9476 290.826 73.9264 290.763C73.9052 290.7 73.8974 290.633 73.9034 290.567C73.9034 290.252 76.6603 259.437 54.5612 238.963C54.5029 238.919 54.455 238.864 54.4206 238.801C54.3862 238.738 54.3661 238.67 54.3616 238.599C54.3571 238.529 54.3683 238.458 54.3945 238.392C54.4207 238.326 54.4612 238.266 54.5135 238.215C54.5658 238.165 54.6287 238.126 54.6981 238.1C54.7675 238.074 54.8418 238.063 54.9163 238.066C54.9907 238.069 55.0637 238.087 55.1303 238.119C55.1969 238.15 55.2558 238.195 55.303 238.25C77.7674 259.059 74.9995 290.347 74.9663 290.693C74.947 290.82 74.876 290.935 74.7685 291.013C74.6609 291.092 74.5253 291.127 74.3906 291.112Z" fill="white"/>
<path d="M70.7812 264.209C70.6412 264.196 70.5121 264.131 70.4212 264.029C70.3303 263.928 70.2847 263.796 70.294 263.663C70.4863 261.103 71.2345 258.607 72.4919 256.333C73.7493 254.059 75.4887 252.055 77.6013 250.448C77.6587 250.41 77.7235 250.383 77.7918 250.368C77.8602 250.354 77.9309 250.353 77.9999 250.365C78.0688 250.376 78.1346 250.401 78.1935 250.437C78.2524 250.472 78.3033 250.519 78.3431 250.574C78.3853 250.627 78.4157 250.688 78.4325 250.752C78.4492 250.817 78.452 250.884 78.4406 250.95C78.4292 251.015 78.4039 251.078 78.3663 251.134C78.3286 251.19 78.2793 251.239 78.2214 251.276C76.2502 252.81 74.6262 254.706 73.4466 256.849C72.2671 258.992 71.5563 261.338 71.3569 263.747C71.3513 263.814 71.332 263.878 71.3 263.937C71.268 263.996 71.224 264.049 71.1704 264.092C71.1169 264.135 71.055 264.167 70.9882 264.187C70.9214 264.207 70.851 264.215 70.7812 264.209Z" fill="white"/>
<path d="M72.3423 269.579C72.2662 269.578 72.1913 269.562 72.1225 269.531C72.0538 269.5 71.9928 269.456 71.9437 269.401C71.9437 269.348 66.4079 263.59 53.7862 265.111C53.6393 265.128 53.4915 265.088 53.3753 265.002C53.259 264.915 53.1838 264.789 53.1661 264.649C53.1485 264.51 53.19 264.37 53.2813 264.26C53.3727 264.15 53.5065 264.079 53.6533 264.062C66.8729 262.478 72.4751 268.446 72.7408 268.698C72.7904 268.745 72.8297 268.8 72.8565 268.862C72.8833 268.923 72.8972 268.988 72.8972 269.055C72.8972 269.121 72.8833 269.187 72.8565 269.248C72.8297 269.309 72.7904 269.365 72.7408 269.411C72.6912 269.465 72.6298 269.508 72.561 269.537C72.4922 269.566 72.4176 269.58 72.3423 269.579Z" fill="white"/>
<path d="M122.397 331.483C159.636 331.483 189.824 315.066 189.824 294.815C189.824 274.563 159.636 258.146 122.397 258.146C85.1587 258.146 54.9708 274.563 54.9708 294.815C54.9708 315.066 85.1587 331.483 122.397 331.483Z" fill="#37474F"/>
<path d="M189.824 294.815C189.824 315.068 159.642 331.525 122.397 331.525C85.1522 331.525 54.9598 315.068 54.9598 294.815V305.062C54.9598 325.305 85.1411 341.72 122.375 341.72C159.609 341.72 189.802 325.305 189.802 305.062V294.815H189.824Z" fill="#253239"/>
<path d="M122.397 327.109C87.8204 327.109 59.6873 312.625 59.6873 294.815C59.6873 277.005 87.8204 262.52 122.397 262.52C156.974 262.52 185.118 277.005 185.118 294.815C185.118 312.625 156.985 327.109 122.397 327.109ZM122.397 263.632C88.4626 263.632 60.8498 277.613 60.8498 294.815C60.8498 312.016 88.4626 325.998 122.397 325.998C156.332 325.998 183.945 312.006 183.945 294.815C183.945 277.624 156.343 263.632 122.397 263.632Z" fill="#BA68C8"/>
<path d="M122.397 132.849C87.8204 132.849 59.6873 118.354 59.6873 100.544C59.6873 82.7343 87.8204 68.2495 122.397 68.2495C156.974 68.2495 185.118 82.7343 185.118 100.544C185.118 118.354 156.985 132.849 122.397 132.849ZM122.397 69.3613C88.4626 69.3613 60.8498 83.3532 60.8498 100.544C60.8498 117.735 88.4626 131.737 122.397 131.737C156.332 131.737 183.945 117.714 183.945 100.544C183.945 83.3741 156.343 69.3613 122.397 69.3613Z" fill="#BA68C8"/>
<path d="M183.945 294.826V294.815H185.118L183.945 294.826Z" fill="#BA68C8"/>
<path d="M59.6873 294.826V294.815H60.8609L59.6873 294.826Z" fill="#BA68C8"/>
<path d="M185.118 294.815H183.945C183.945 277.613 156.343 263.632 122.397 263.632C88.4515 263.632 60.8499 277.613 60.8499 294.815H59.7427V260.8C59.7117 251.51 62.3391 242.386 67.3456 234.399C72.3521 226.411 79.5503 219.858 88.1747 215.437L105.303 206.7C106.828 205.915 108.102 204.755 108.99 203.342C109.877 201.929 110.346 200.315 110.346 198.671C110.346 197.026 109.877 195.412 108.99 193.999C108.102 192.586 106.828 191.426 105.303 190.642L88.1747 181.905C79.5483 177.495 72.3442 170.953 67.3282 162.975C62.3122 154.996 59.6717 145.88 59.6873 136.594V101.981H60.9274V102.474C62.9092 118.889 89.8798 131.748 122.342 131.748C154.804 131.748 181.786 118.889 183.768 102.474L183.823 101.981H185.063V136.594C185.091 145.883 182.461 155.005 177.452 162.991C172.444 170.977 165.245 177.528 156.62 181.946L139.481 190.684C137.958 191.47 136.688 192.631 135.802 194.044C134.917 195.457 134.45 197.07 134.45 198.713C134.45 200.356 134.917 201.968 135.802 203.381C136.688 204.794 137.958 205.955 139.481 206.742L156.62 215.479C173.991 225.16 184.886 242.529 185.063 260.842L185.118 294.815ZM122.397 262.52C152.844 262.52 178.287 273.743 183.945 288.574V260.8C183.779 242.885 173.106 225.873 156.099 216.412L138.983 207.686C137.273 206.804 135.845 205.502 134.851 203.916C133.856 202.331 133.331 200.52 133.331 198.676C133.331 196.831 133.856 195.021 134.851 193.436C135.845 191.85 137.273 190.548 138.983 189.666L156.122 180.929C164.554 176.609 171.594 170.206 176.493 162.399C181.391 154.593 183.967 145.675 183.945 136.594V106.806C178.298 121.731 152.689 132.891 122.397 132.891C92.1052 132.891 66.5075 121.731 60.8499 106.806V136.594C60.8221 145.683 63.3957 154.61 68.2969 162.424C73.1982 170.239 80.2437 176.648 88.684 180.971L105.823 189.708C107.533 190.59 108.96 191.892 109.955 193.478C110.95 195.063 111.475 196.873 111.475 198.718C111.475 200.562 110.95 202.372 109.955 203.958C108.96 205.544 107.533 206.846 105.823 207.728L88.684 216.465C80.2429 220.787 73.1967 227.196 68.2954 235.01C63.394 242.825 60.8209 251.752 60.8499 260.842V288.574C66.5075 273.743 91.9612 262.52 122.397 262.52Z" fill="#BA68C8"/>
<path d="M127.678 236.477C126.072 235.606 124.254 235.147 122.403 235.147C120.552 235.147 118.733 235.606 117.127 236.477C103.177 244.039 66.3746 265.174 66.3746 277.98C66.3746 293.787 91.452 306.604 122.397 306.604C153.343 306.604 178.431 293.787 178.431 277.98C178.431 265.174 141.629 244.039 127.678 236.477Z" fill="#BA68C8"/>
<path opacity="0.3" d="M127.678 236.477C126.072 235.606 124.254 235.147 122.403 235.147C120.552 235.147 118.733 235.606 117.127 236.477C103.177 244.039 66.3746 265.174 66.3746 277.98C66.3746 293.787 91.452 306.604 122.397 306.604C153.343 306.604 178.431 293.787 178.431 277.98C178.431 265.174 141.629 244.039 127.678 236.477Z" fill="white"/>
<path d="M122.397 306.604C91.452 306.604 66.3746 293.787 66.3746 277.98V292.486C66.3746 308.293 91.463 321.11 122.397 321.11C153.332 321.11 178.431 308.293 178.431 292.486V277.98C178.431 293.787 153.343 306.604 122.397 306.604Z" fill="#BA68C8"/>
<path d="M66.3746 102.526V133.992C66.3556 142.279 68.7046 150.416 73.1723 157.54C77.64 164.664 84.0598 170.51 91.7509 174.458L107.251 182.335C107.484 182.46 107.716 182.586 107.927 182.723C108.48 183.058 109.034 183.383 109.609 183.688C112.779 185.566 115.391 188.178 117.2 191.277C119.009 194.377 119.956 197.861 119.95 201.403V215.038C119.947 215.671 120.209 216.278 120.678 216.729C121.147 217.179 121.785 217.434 122.453 217.44C123.121 217.434 123.76 217.179 124.231 216.729C124.702 216.279 124.966 215.672 124.966 215.038V201.403C124.96 197.862 125.906 194.379 127.713 191.28C129.52 188.181 132.129 185.568 135.296 183.688C135.871 183.383 136.403 183.058 136.99 182.723C137.2 182.586 137.433 182.46 137.665 182.335L153.11 174.458C160.801 170.51 167.221 164.664 171.689 157.54C176.156 150.416 178.505 142.279 178.486 133.992V102.526H66.3746Z" fill="#BA68C8"/>
<path d="M124.911 224.814C124.908 224.343 124.759 223.884 124.482 223.494C124.204 223.103 123.811 222.8 123.351 222.621C122.892 222.443 122.387 222.397 121.9 222.49C121.413 222.583 120.967 222.811 120.616 223.144C120.266 223.478 120.028 223.902 119.932 224.363C119.835 224.825 119.886 225.303 120.076 225.738C120.267 226.172 120.589 226.543 121.002 226.804C121.415 227.066 121.901 227.205 122.397 227.205C123.064 227.199 123.702 226.945 124.172 226.498C124.642 226.05 124.908 225.445 124.911 224.814Z" fill="#BA68C8"/>
<path opacity="0.3" d="M66.3746 102.526V133.992C66.3556 142.279 68.7046 150.416 73.1723 157.54C77.64 164.664 84.0598 170.51 91.7509 174.458L107.251 182.335C107.484 182.46 107.716 182.586 107.927 182.723C108.48 183.058 109.034 183.383 109.609 183.688C112.779 185.566 115.391 188.178 117.2 191.277C119.009 194.377 119.956 197.861 119.95 201.403V215.038C119.947 215.671 120.209 216.278 120.678 216.729C121.147 217.179 121.785 217.434 122.453 217.44C123.121 217.434 123.76 217.179 124.231 216.729C124.702 216.279 124.966 215.672 124.966 215.038V201.403C124.96 197.862 125.906 194.379 127.713 191.28C129.52 188.181 132.129 185.568 135.296 183.688C135.871 183.383 136.403 183.058 136.99 182.723C137.2 182.586 137.433 182.46 137.665 182.335L153.11 174.458C160.801 170.51 167.221 164.664 171.689 157.54C176.156 150.416 178.505 142.279 178.486 133.992V102.526H66.3746Z" fill="white"/>
<g opacity="0.3">
<path d="M124.911 224.814C124.908 224.343 124.759 223.884 124.482 223.494C124.204 223.103 123.811 222.8 123.351 222.621C122.892 222.443 122.387 222.397 121.9 222.49C121.413 222.583 120.967 222.811 120.616 223.144C120.266 223.478 120.028 223.902 119.932 224.363C119.835 224.825 119.886 225.303 120.076 225.738C120.267 226.172 120.589 226.543 121.002 226.804C121.415 227.066 121.901 227.205 122.397 227.205C123.064 227.199 123.702 226.945 124.172 226.498C124.642 226.05 124.908 225.445 124.911 224.814Z" fill="white"/>
</g>
<path d="M122.397 131.15C153.344 131.15 178.431 118.335 178.431 102.526C178.431 86.7181 153.344 73.903 122.397 73.903C91.4507 73.903 66.3635 86.7181 66.3635 102.526C66.3635 118.335 91.4507 131.15 122.397 131.15Z" fill="#BA68C8"/>
<g style="mix-blend-mode:overlay" opacity="0.5">
<path d="M117.791 207.193L106.897 215.93C95.8252 224.761 89.0051 242.015 89.0051 260.8V320.648C85.6211 319.552 82.3275 318.22 79.1513 316.663V260.8C79.1513 242.015 87.0233 224.761 99.645 215.93L112.101 207.193C117.293 203.553 117.293 193.778 112.101 190.159L99.645 181.422C87.0676 172.591 79.1513 155.326 79.1513 136.594V102.526H89.0051V136.594C89.0051 155.379 95.8806 172.643 106.897 181.474L117.791 190.212C122.32 193.778 122.32 203.553 117.791 207.193Z" fill="white"/>
</g>
<path d="M122.397 137.212C159.636 137.212 189.824 120.795 189.824 100.544C189.824 80.2927 159.636 63.8757 122.397 63.8757C85.1587 63.8757 54.9709 80.2927 54.9709 100.544C54.9709 120.795 85.1587 137.212 122.397 137.212Z" fill="#37474F"/>
<path d="M189.824 100.544C189.824 120.798 159.642 137.254 122.397 137.254C85.1522 137.254 54.9598 120.798 54.9598 100.544V110.792C54.9598 131.045 85.1411 147.502 122.375 147.502C159.609 147.502 189.802 131.087 189.802 110.792V100.544H189.824Z" fill="#253239"/>
<path d="M343.033 202.63V162.165L283.313 129.168V88.7026L223.603 55.6948V258.01L283.313 291.018L343.033 324.015L402.743 357.023V235.638L343.033 202.63Z" fill="#BA68C8"/>
<path opacity="0.3" d="M343.034 202.63V243.095L402.743 276.103V235.638L343.034 202.63Z" fill="white"/>
<path d="M402.743 235.638V276.103L343.034 309.111V349.565L283.313 382.573V423.038L343.034 390.031L402.743 357.023L462.464 324.015V202.63L402.743 235.638Z" fill="#BA68C8"/>
<path opacity="0.1" d="M402.743 235.638V276.103L343.034 309.111V349.565L283.313 382.573V423.038L343.034 390.031L402.743 357.023L462.464 324.015V202.63L402.743 235.638Z" fill="white"/>
<path d="M283.313 88.7024L223.603 55.6946L283.313 22.6869L343.033 55.6946L283.313 88.7024Z" fill="#BA68C8"/>
<path opacity="0.7" d="M283.313 88.7024L223.603 55.6946L283.313 22.6869L343.033 55.6946L283.313 88.7024Z" fill="white"/>
<path d="M283.313 129.168V88.7026L343.034 55.6948V96.16L283.313 129.168Z" fill="#BA68C8"/>
<path opacity="0.1" d="M283.313 129.168V88.7026L343.034 55.6948V96.16L283.313 129.168Z" fill="black"/>
<path d="M343.034 162.165L283.313 129.168L343.034 96.1599L402.743 129.168L343.034 162.165Z" fill="#BA68C8"/>
<path d="M343.034 202.63V162.165L402.743 129.168V169.622L343.034 202.63Z" fill="#BA68C8"/>
<path opacity="0.7" d="M343.034 162.165L283.313 129.168L343.034 96.1599L402.743 129.168L343.034 162.165Z" fill="white"/>
<path opacity="0.1" d="M343.034 202.63V162.165L402.743 129.168V169.622L343.034 202.63Z" fill="black"/>
<path d="M402.743 235.638L343.034 202.63L402.743 169.622L462.464 202.63L402.743 235.638Z" fill="#BA68C8"/>
<g opacity="0.7">
<path d="M402.743 235.638L343.034 202.63L402.743 169.622L462.464 202.63L402.743 235.638Z" fill="white"/>
</g>
<path d="M343.034 309.111L402.743 276.103L343.034 243.095L283.313 276.103L343.034 309.111Z" fill="#BA68C8"/>
<path opacity="0.7" d="M343.034 309.111L402.743 276.103L343.034 243.095L283.313 276.103L343.034 309.111Z" fill="white"/>
<path d="M343.034 349.565V309.111L283.313 276.103V316.568L343.034 349.565Z" fill="#BA68C8"/>
<path opacity="0.3" d="M343.034 349.565V309.111L283.313 276.103V316.568L343.034 349.565Z" fill="white"/>
<path d="M283.313 382.573L343.033 349.565L283.313 316.568L223.603 349.565L283.313 382.573Z" fill="#BA68C8"/>
<path d="M283.313 423.039V382.573L223.603 349.566V390.031L283.313 423.039Z" fill="#BA68C8"/>
<path opacity="0.7" d="M283.313 382.573L343.033 349.565L283.313 316.568L223.603 349.565L283.313 382.573Z" fill="white"/>
<path opacity="0.3" d="M283.313 423.039V382.573L223.603 349.566V390.031L283.313 423.039Z" fill="white"/>
<path d="M331.486 343.188L271.776 376.196L235.151 355.953L294.872 322.945L331.486 343.188Z" fill="#BA68C8"/>
<path opacity="0.4" d="M331.486 343.188L271.776 376.196L235.151 355.953L294.872 322.945L331.486 343.188Z" fill="white"/>
<path d="M271.776 376.196V416.651L235.14 396.418V355.953H235.151L271.776 376.196Z" fill="#BA68C8"/>
<path d="M391.206 269.716L331.486 302.723L294.872 282.491L354.581 249.483L391.206 269.716Z" fill="#BA68C8"/>
<path opacity="0.4" d="M391.206 269.716L331.486 302.723L294.872 282.491L354.581 249.483L391.206 269.716Z" fill="white"/>
<path d="M331.486 302.723V343.188L294.861 322.945V282.491H294.872L331.486 302.723Z" fill="#BA68C8"/>
<path d="M391.206 229.261V269.715L354.57 249.483V209.018H354.581L391.206 229.261Z" fill="#BA68C8"/>
<path d="M391.206 229.261V269.715L354.57 249.483V209.018H354.581L391.206 229.261Z" fill="#BA68C8"/>
<path d="M294.861 122.78L354.57 155.788L391.195 135.555L331.475 102.537L294.861 122.78Z" fill="#BA68C8"/>
<g style="mix-blend-mode:overlay" opacity="0.5">
<path d="M294.861 122.78L354.57 155.788L391.195 135.555L331.475 102.537L294.861 122.78Z" fill="white"/>
</g>
<path d="M354.57 155.788V196.253L391.206 176.01V135.555H391.195L354.57 155.788Z" fill="#BA68C8"/>
<path opacity="0.3" d="M354.57 155.788V196.253L391.206 176.01V135.555H391.195L354.57 155.788Z" fill="black"/>
<path d="M235.14 49.3072L294.861 82.3254L331.475 62.0823L271.765 29.0746L235.14 49.3072Z" fill="#BA68C8"/>
<g style="mix-blend-mode:overlay" opacity="0.5">
<path d="M235.14 49.3072L294.861 82.3254L331.475 62.0823L271.765 29.0746L235.14 49.3072Z" fill="white"/>
</g>
<path d="M294.861 82.3254V122.78L331.486 102.537V62.0823H331.475L294.861 82.3254Z" fill="#BA68C8"/>
<path opacity="0.3" d="M294.861 82.3254V122.78L331.486 102.537V62.0823H331.475L294.861 82.3254Z" fill="black"/>
<path d="M402.743 182.397L391.195 175.999L354.57 196.242L366.129 202.63L354.581 209.018L391.206 229.25L402.743 222.873L439.368 202.63L402.743 182.397Z" fill="#BA68C8"/>
<path opacity="0.4" d="M402.743 182.397L391.195 175.999L354.57 196.242L366.129 202.63L354.581 209.018L391.206 229.25L402.743 222.873L439.368 202.63L402.743 182.397Z" fill="white"/>
<path d="M259.531 43.0558C259.438 43.055 259.347 43.0335 259.265 42.9929L257.051 41.7553C256.99 41.7217 256.937 41.6771 256.895 41.6241C256.853 41.5711 256.822 41.5106 256.805 41.4463C256.787 41.3819 256.783 41.3149 256.793 41.2491C256.803 41.1834 256.827 41.1201 256.863 41.063C256.932 40.9482 257.047 40.864 257.182 40.8287C257.316 40.7933 257.46 40.8097 257.582 40.8742L259.797 42.1119C259.919 42.1798 260.008 42.2903 260.045 42.4196C260.082 42.5489 260.065 42.6869 259.996 42.8041C259.95 42.8821 259.882 42.9467 259.8 42.991C259.718 43.0353 259.625 43.0578 259.531 43.0558Z" fill="#BA68C8"/>
<path d="M303.386 67.3056C303.292 67.3059 303.199 67.2804 303.12 67.2321L298.692 64.8093C298.63 64.7762 298.577 64.7321 298.534 64.6794C298.491 64.6267 298.459 64.5665 298.441 64.5022C298.422 64.438 298.417 64.3709 298.426 64.3048C298.435 64.2387 298.457 64.1749 298.492 64.117C298.527 64.0592 298.574 64.0084 298.629 63.9676C298.685 63.9268 298.748 63.8968 298.816 63.8793C298.884 63.8617 298.955 63.857 299.025 63.8654C299.095 63.8738 299.162 63.8952 299.223 63.9282L303.652 66.3511C303.712 66.3847 303.765 66.4292 303.807 66.4823C303.85 66.5353 303.88 66.5957 303.898 66.6601C303.915 66.7244 303.919 66.7914 303.909 66.8572C303.899 66.923 303.876 66.9863 303.84 67.0434C303.797 67.1224 303.732 67.1888 303.652 67.235C303.572 67.2813 303.48 67.3057 303.386 67.3056ZM294.617 62.4493C294.525 62.4485 294.434 62.4269 294.351 62.3864L289.923 59.9635C289.862 59.9305 289.808 59.8863 289.765 59.8337C289.722 59.781 289.69 59.7208 289.672 59.6565C289.653 59.5922 289.648 59.5251 289.657 59.459C289.666 59.3929 289.689 59.3291 289.723 59.2713C289.758 59.2134 289.805 59.1626 289.861 59.1219C289.916 59.0811 289.98 59.051 290.048 59.0335C290.115 59.016 290.186 59.0113 290.256 59.0197C290.326 59.0281 290.393 59.0494 290.454 59.0825L294.883 61.5054C294.943 61.5389 294.996 61.5835 295.039 61.6365C295.081 61.6895 295.112 61.75 295.129 61.8143C295.147 61.8787 295.151 61.9457 295.141 62.0115C295.131 62.0772 295.107 62.1405 295.071 62.1976C295.028 62.2755 294.962 62.3403 294.882 62.3848C294.802 62.4293 294.71 62.4517 294.617 62.4493ZM285.848 57.6036C285.756 57.604 285.664 57.5824 285.583 57.5406L281.154 55.1178C281.031 55.0478 280.942 54.9355 280.905 54.8045C280.868 54.6734 280.886 54.5338 280.955 54.415C280.99 54.3577 281.037 54.3075 281.093 54.2675C281.149 54.2274 281.213 54.1983 281.281 54.1817C281.349 54.1651 281.42 54.1614 281.489 54.1709C281.558 54.1803 281.625 54.2027 281.685 54.2367L286.114 56.6596C286.218 56.7139 286.299 56.7996 286.346 56.9029C286.392 57.0063 286.401 57.1214 286.37 57.2299C286.34 57.3384 286.272 57.4342 286.177 57.5019C286.083 57.5696 285.967 57.6054 285.848 57.6036ZM277.08 52.7578C276.985 52.7609 276.892 52.7351 276.814 52.6844L272.385 50.2615C272.263 50.1936 272.174 50.0831 272.137 49.9538C272.1 49.8245 272.117 49.6865 272.186 49.5693C272.22 49.5123 272.266 49.4623 272.321 49.4224C272.376 49.3825 272.439 49.3534 272.506 49.3367C272.573 49.3201 272.643 49.3164 272.712 49.3257C272.78 49.335 272.846 49.3572 272.906 49.391L277.334 51.8138C277.454 51.8835 277.541 51.9947 277.576 52.1239C277.611 52.2531 277.592 52.3901 277.522 52.5061C277.477 52.5796 277.412 52.6411 277.335 52.6851C277.257 52.729 277.17 52.754 277.08 52.7578ZM268.3 47.9121C268.206 47.9124 268.113 47.8869 268.034 47.8386L263.605 45.4158C263.485 45.3461 263.399 45.2349 263.363 45.1057C263.328 44.9765 263.348 44.8395 263.417 44.7235C263.487 44.6087 263.601 44.5245 263.736 44.4892C263.871 44.4539 264.015 44.4702 264.137 44.5347L268.566 46.9576C268.687 47.0256 268.777 47.136 268.814 47.2653C268.851 47.3947 268.833 47.5326 268.765 47.6499C268.719 47.729 268.652 47.7951 268.57 47.8412C268.488 47.8874 268.395 47.9118 268.3 47.9121Z" fill="#BA68C8"/>
<path d="M310.007 70.9662C309.912 70.9665 309.82 70.941 309.741 70.8927L307.527 69.6551C307.466 69.6215 307.413 69.577 307.371 69.5239C307.329 69.4709 307.298 69.4105 307.28 69.3461C307.263 69.2817 307.259 69.2147 307.269 69.149C307.279 69.0832 307.303 69.0199 307.338 68.9628C307.372 68.9047 307.417 68.8537 307.472 68.8129C307.527 68.7722 307.59 68.7425 307.657 68.7258C307.725 68.7091 307.795 68.7057 307.864 68.7158C307.933 68.7259 307.999 68.7493 308.058 68.7845L310.272 70.0117C310.394 70.0797 310.483 70.1901 310.521 70.3194C310.558 70.4487 310.54 70.5867 310.472 70.704C310.426 70.7831 310.359 70.8492 310.277 70.8953C310.195 70.9415 310.102 70.9659 310.007 70.9662Z" fill="#BA68C8"/>
<g opacity="0.3">
<path d="M259.531 43.0558C259.438 43.055 259.347 43.0335 259.265 42.9929L257.051 41.7553C256.99 41.7217 256.937 41.6771 256.895 41.6241C256.853 41.5711 256.822 41.5106 256.805 41.4463C256.787 41.3819 256.783 41.3149 256.793 41.2491C256.803 41.1834 256.827 41.1201 256.863 41.063C256.932 40.9482 257.047 40.864 257.182 40.8287C257.316 40.7933 257.46 40.8097 257.582 40.8742L259.797 42.1119C259.919 42.1798 260.008 42.2903 260.045 42.4196C260.082 42.5489 260.065 42.6869 259.996 42.8041C259.95 42.8821 259.882 42.9467 259.8 42.991C259.718 43.0353 259.625 43.0578 259.531 43.0558Z" fill="black"/>
<path d="M303.386 67.3057C303.292 67.3061 303.199 67.2806 303.12 67.2323L298.691 64.8094C298.63 64.7763 298.577 64.7322 298.534 64.6795C298.491 64.6269 298.459 64.5667 298.44 64.5024C298.422 64.4381 298.417 64.371 298.426 64.3049C298.435 64.2388 298.457 64.175 298.492 64.1171C298.527 64.0593 298.574 64.0085 298.629 63.9677C298.685 63.9269 298.748 63.8969 298.816 63.8794C298.884 63.8618 298.955 63.8571 299.025 63.8655C299.095 63.874 299.162 63.8953 299.223 63.9284L303.652 66.3512C303.712 66.3848 303.765 66.4294 303.807 66.4824C303.85 66.5354 303.88 66.5959 303.898 66.6602C303.915 66.7246 303.919 66.7916 303.909 66.8573C303.899 66.9231 303.876 66.9864 303.84 67.0435C303.797 67.1226 303.732 67.1889 303.652 67.2352C303.572 67.2814 303.48 67.3058 303.386 67.3057ZM294.617 62.4494C294.525 62.4486 294.433 62.4271 294.351 62.3865L289.923 59.9636C289.862 59.9306 289.808 59.8865 289.765 59.8338C289.722 59.7811 289.69 59.7209 289.672 59.6566C289.653 59.5923 289.648 59.5252 289.657 59.4591C289.666 59.393 289.689 59.3292 289.723 59.2714C289.758 59.2135 289.805 59.1628 289.861 59.122C289.916 59.0812 289.98 59.0512 290.048 59.0336C290.115 59.0161 290.186 59.0114 290.256 59.0198C290.326 59.0282 290.393 59.0495 290.454 59.0826L294.883 61.5055C294.943 61.539 294.996 61.5836 295.039 61.6366C295.081 61.6897 295.112 61.7501 295.129 61.8145C295.147 61.8788 295.151 61.9458 295.141 62.0116C295.131 62.0774 295.107 62.1406 295.071 62.1977C295.028 62.2756 294.962 62.3405 294.882 62.385C294.802 62.4294 294.71 62.4518 294.617 62.4494ZM285.848 57.6037C285.756 57.6041 285.664 57.5825 285.583 57.5408L281.154 55.1179C281.031 55.0479 280.942 54.9356 280.905 54.8046C280.868 54.6735 280.885 54.534 280.955 54.4152C280.99 54.3578 281.037 54.3076 281.093 54.2676C281.149 54.2275 281.213 54.1984 281.281 54.1818C281.349 54.1652 281.419 54.1616 281.489 54.171C281.558 54.1805 281.625 54.2028 281.685 54.2368L286.114 56.6597C286.218 56.7141 286.299 56.7997 286.346 56.9031C286.392 57.0064 286.401 57.1215 286.37 57.23C286.34 57.3386 286.272 57.4343 286.177 57.502C286.083 57.5697 285.967 57.6055 285.848 57.6037ZM277.08 52.7579C276.985 52.761 276.892 52.7353 276.814 52.6845L272.385 50.2617C272.263 50.1937 272.174 50.0832 272.137 49.9539C272.1 49.8246 272.117 49.6866 272.186 49.5694C272.22 49.5124 272.266 49.4625 272.321 49.4225C272.376 49.3826 272.439 49.3535 272.506 49.3369C272.573 49.3203 272.643 49.3165 272.712 49.3258C272.78 49.3351 272.846 49.3573 272.906 49.3911L277.334 51.814C277.454 51.8837 277.541 51.9948 277.576 52.124C277.611 52.2532 277.592 52.3903 277.522 52.5062C277.477 52.5797 277.412 52.6413 277.335 52.6852C277.257 52.7292 277.17 52.7542 277.08 52.7579ZM268.3 47.9122C268.206 47.9126 268.113 47.8871 268.034 47.8388L263.605 45.4159C263.485 45.3462 263.399 45.235 263.363 45.1059C263.328 44.9767 263.348 44.8396 263.417 44.7237C263.487 44.6089 263.601 44.5247 263.736 44.4893C263.871 44.454 264.015 44.4703 264.137 44.5349L268.565 46.9577C268.687 47.0257 268.777 47.1361 268.814 47.2655C268.851 47.3948 268.833 47.5328 268.765 47.65C268.719 47.7291 268.652 47.7952 268.57 47.8414C268.488 47.8875 268.395 47.9119 268.3 47.9122Z" fill="black"/>
<path d="M310.007 70.9662C309.912 70.9666 309.82 70.9411 309.741 70.8928L307.527 69.6551C307.466 69.6215 307.413 69.577 307.371 69.5239C307.329 69.4709 307.298 69.4105 307.28 69.3461C307.263 69.2817 307.259 69.2147 307.269 69.149C307.279 69.0832 307.303 69.0199 307.338 68.9628C307.372 68.9047 307.417 68.8537 307.472 68.8129C307.527 68.7722 307.59 68.7425 307.657 68.7258C307.725 68.7091 307.795 68.7057 307.864 68.7158C307.933 68.7259 307.999 68.7493 308.058 68.7845L310.272 70.0117C310.394 70.0797 310.483 70.1901 310.521 70.3194C310.558 70.4487 310.54 70.5867 310.472 70.704C310.426 70.7831 310.359 70.8492 310.277 70.8953C310.195 70.9415 310.102 70.9659 310.007 70.9662Z" fill="black"/>
</g>
<path d="M318.93 116.351C318.836 116.351 318.744 116.325 318.665 116.277L316.45 115.039C316.39 115.006 316.337 114.961 316.295 114.908C316.252 114.855 316.222 114.795 316.204 114.73C316.187 114.666 316.183 114.599 316.193 114.533C316.203 114.468 316.226 114.404 316.262 114.347C316.297 114.29 316.343 114.24 316.398 114.2C316.453 114.16 316.515 114.131 316.582 114.115C316.649 114.098 316.719 114.094 316.788 114.104C316.857 114.113 316.922 114.135 316.982 114.169L319.196 115.407C319.3 115.461 319.382 115.547 319.428 115.65C319.474 115.753 319.483 115.868 319.453 115.977C319.422 116.085 319.354 116.181 319.259 116.249C319.165 116.317 319.049 116.352 318.93 116.351Z" fill="#BA68C8"/>
<path d="M362.83 140.621C362.739 140.623 362.65 140.597 362.575 140.548L358.146 138.125C358.085 138.092 358.032 138.048 357.989 137.995C357.946 137.942 357.914 137.882 357.895 137.818C357.877 137.754 357.872 137.686 357.881 137.62C357.89 137.554 357.912 137.49 357.947 137.433C357.982 137.375 358.029 137.324 358.084 137.283C358.14 137.242 358.203 137.212 358.271 137.195C358.339 137.177 358.41 137.173 358.48 137.181C358.549 137.189 358.617 137.211 358.678 137.244L363.106 139.677C363.228 139.745 363.318 139.856 363.355 139.985C363.392 140.114 363.374 140.252 363.306 140.369C363.257 140.447 363.187 140.512 363.104 140.556C363.02 140.6 362.925 140.623 362.83 140.621ZM354.05 135.765C353.957 135.764 353.866 135.743 353.784 135.702L349.355 133.269C349.232 133.202 349.142 133.091 349.104 132.962C349.067 132.832 349.086 132.693 349.156 132.576C349.227 132.46 349.343 132.374 349.48 132.339C349.617 132.303 349.764 132.321 349.887 132.388L354.316 134.821C354.419 134.875 354.501 134.961 354.547 135.064C354.594 135.168 354.602 135.283 354.572 135.391C354.541 135.5 354.473 135.596 354.379 135.663C354.284 135.731 354.168 135.767 354.05 135.765ZM345.27 130.909C345.177 130.908 345.086 130.886 345.004 130.846L340.576 128.412C340.454 128.344 340.365 128.234 340.327 128.105C340.29 127.975 340.308 127.837 340.376 127.72C340.412 127.663 340.459 127.613 340.515 127.573C340.571 127.533 340.635 127.503 340.703 127.487C340.77 127.47 340.841 127.467 340.911 127.476C340.98 127.485 341.047 127.508 341.107 127.542L345.536 129.965C345.658 130.033 345.747 130.143 345.784 130.272C345.821 130.402 345.804 130.54 345.735 130.657C345.689 130.735 345.621 130.8 345.539 130.844C345.457 130.888 345.364 130.911 345.27 130.909ZM336.49 126.105C336.398 126.104 336.307 126.082 336.224 126.042L331.796 123.619C331.674 123.551 331.585 123.441 331.548 123.311C331.51 123.182 331.528 123.044 331.596 122.927C331.631 122.869 331.677 122.817 331.733 122.776C331.788 122.735 331.852 122.705 331.92 122.687C331.988 122.67 332.059 122.665 332.129 122.674C332.199 122.683 332.266 122.704 332.327 122.738L336.756 125.161C336.878 125.229 336.967 125.339 337.004 125.469C337.041 125.598 337.024 125.736 336.955 125.853C336.909 125.931 336.841 125.996 336.76 126.04C336.678 126.084 336.584 126.107 336.49 126.105ZM327.71 121.259C327.616 121.26 327.524 121.234 327.445 121.186L323.016 118.763C322.955 118.73 322.901 118.686 322.858 118.633C322.815 118.58 322.783 118.52 322.765 118.456C322.746 118.392 322.741 118.324 322.75 118.258C322.759 118.192 322.782 118.128 322.817 118.071C322.852 118.013 322.898 117.962 322.954 117.921C323.009 117.88 323.073 117.85 323.141 117.833C323.209 117.815 323.279 117.811 323.349 117.819C323.419 117.827 323.486 117.849 323.547 117.882L327.976 120.305C328.099 120.375 328.188 120.487 328.225 120.618C328.262 120.749 328.245 120.889 328.175 121.007C328.121 121.074 328.05 121.127 327.969 121.162C327.888 121.197 327.799 121.212 327.71 121.207V121.259Z" fill="#BA68C8"/>
<path d="M369.462 144.282C369.369 144.281 369.278 144.259 369.196 144.219L366.982 142.981C366.921 142.948 366.868 142.903 366.826 142.85C366.784 142.797 366.753 142.737 366.735 142.672C366.718 142.608 366.714 142.541 366.724 142.475C366.734 142.409 366.757 142.346 366.793 142.289C366.827 142.231 366.872 142.18 366.927 142.139C366.981 142.098 367.044 142.068 367.111 142.05C367.178 142.033 367.248 142.028 367.317 142.037C367.386 142.045 367.453 142.067 367.513 142.1L369.727 143.338C369.788 143.371 369.841 143.416 369.883 143.469C369.925 143.522 369.956 143.582 369.974 143.647C369.991 143.711 369.995 143.778 369.985 143.844C369.975 143.91 369.951 143.973 369.916 144.03C369.869 144.105 369.802 144.167 369.723 144.212C369.644 144.256 369.554 144.28 369.462 144.282Z" fill="#BA68C8"/>
<g opacity="0.3">
<path d="M318.93 116.351C318.836 116.351 318.744 116.325 318.665 116.277L316.45 115.039C316.39 115.006 316.337 114.961 316.295 114.908C316.252 114.855 316.222 114.795 316.204 114.73C316.187 114.666 316.183 114.599 316.193 114.533C316.203 114.468 316.226 114.404 316.262 114.347C316.297 114.29 316.343 114.24 316.398 114.2C316.453 114.16 316.515 114.131 316.582 114.115C316.649 114.098 316.719 114.094 316.788 114.104C316.857 114.113 316.922 114.135 316.982 114.169L319.196 115.407C319.3 115.461 319.382 115.547 319.428 115.65C319.474 115.753 319.483 115.868 319.453 115.977C319.422 116.085 319.354 116.181 319.259 116.249C319.165 116.317 319.049 116.352 318.93 116.351Z" fill="black"/>
<path d="M362.83 140.621C362.739 140.623 362.65 140.597 362.575 140.548L358.146 138.125C358.085 138.092 358.032 138.048 357.989 137.995C357.945 137.942 357.914 137.882 357.895 137.818C357.877 137.754 357.872 137.687 357.881 137.62C357.89 137.554 357.912 137.491 357.947 137.433C357.982 137.375 358.028 137.324 358.084 137.283C358.14 137.243 358.203 137.212 358.271 137.195C358.339 137.177 358.41 137.173 358.479 137.181C358.549 137.19 358.617 137.211 358.678 137.244L363.106 139.677C363.228 139.745 363.317 139.856 363.355 139.985C363.392 140.114 363.374 140.252 363.306 140.37C363.257 140.448 363.187 140.512 363.103 140.556C363.02 140.6 362.925 140.623 362.83 140.621ZM354.05 135.765C353.957 135.764 353.866 135.743 353.784 135.702L349.355 133.269C349.232 133.202 349.142 133.092 349.104 132.962C349.067 132.832 349.086 132.693 349.156 132.576C349.227 132.46 349.343 132.374 349.48 132.339C349.617 132.303 349.763 132.321 349.887 132.388L354.315 134.821C354.419 134.875 354.501 134.961 354.547 135.064C354.594 135.168 354.602 135.283 354.572 135.391C354.541 135.5 354.473 135.596 354.379 135.663C354.284 135.731 354.168 135.767 354.05 135.765ZM345.27 130.909C345.177 130.908 345.086 130.886 345.004 130.846L340.576 128.413C340.454 128.345 340.364 128.234 340.327 128.105C340.29 127.975 340.308 127.837 340.376 127.72C340.412 127.663 340.459 127.613 340.515 127.573C340.571 127.533 340.634 127.503 340.702 127.487C340.77 127.47 340.841 127.467 340.91 127.476C340.98 127.486 341.047 127.508 341.107 127.542L345.536 129.965C345.658 130.033 345.747 130.143 345.784 130.273C345.821 130.402 345.804 130.54 345.735 130.657C345.689 130.735 345.621 130.8 345.539 130.844C345.457 130.888 345.364 130.911 345.27 130.909ZM336.49 126.105C336.397 126.104 336.306 126.083 336.224 126.042L331.796 123.619C331.674 123.551 331.585 123.441 331.547 123.311C331.51 123.182 331.528 123.044 331.596 122.927C331.631 122.869 331.677 122.818 331.733 122.776C331.788 122.735 331.852 122.705 331.92 122.688C331.988 122.67 332.059 122.665 332.129 122.674C332.199 122.683 332.266 122.705 332.327 122.738L336.756 125.161C336.878 125.229 336.967 125.339 337.004 125.469C337.041 125.598 337.024 125.736 336.955 125.853C336.909 125.931 336.841 125.996 336.759 126.04C336.677 126.085 336.584 126.107 336.49 126.105ZM327.71 121.259C327.616 121.26 327.524 121.234 327.444 121.186L323.016 118.763C322.955 118.73 322.901 118.686 322.858 118.633C322.815 118.58 322.783 118.52 322.765 118.456C322.746 118.392 322.741 118.325 322.75 118.258C322.759 118.192 322.782 118.129 322.817 118.071C322.851 118.013 322.898 117.962 322.954 117.921C323.009 117.88 323.073 117.85 323.141 117.833C323.208 117.815 323.279 117.811 323.349 117.819C323.419 117.828 323.486 117.849 323.547 117.882L327.976 120.305C328.099 120.375 328.188 120.487 328.225 120.618C328.262 120.749 328.244 120.889 328.175 121.008C328.121 121.074 328.05 121.127 327.969 121.162C327.888 121.197 327.799 121.212 327.71 121.207V121.259Z" fill="black"/>
<path d="M369.461 144.282C369.369 144.281 369.278 144.259 369.196 144.219L366.981 142.981C366.921 142.948 366.868 142.903 366.826 142.85C366.783 142.797 366.753 142.737 366.735 142.672C366.718 142.608 366.714 142.541 366.724 142.475C366.734 142.409 366.757 142.346 366.793 142.289C366.827 142.231 366.872 142.18 366.927 142.139C366.981 142.098 367.044 142.068 367.111 142.05C367.178 142.033 367.248 142.028 367.317 142.037C367.386 142.045 367.453 142.067 367.513 142.1L369.727 143.338C369.788 143.371 369.841 143.416 369.883 143.469C369.925 143.522 369.956 143.582 369.974 143.647C369.991 143.711 369.995 143.778 369.985 143.844C369.975 143.91 369.951 143.973 369.915 144.03C369.869 144.105 369.802 144.167 369.723 144.212C369.643 144.256 369.553 144.28 369.461 144.282Z" fill="black"/>
</g>
<path d="M372.894 219.632C372.802 219.63 372.712 219.606 372.633 219.562C372.553 219.518 372.487 219.455 372.44 219.38C372.37 219.264 372.351 219.127 372.386 218.998C372.421 218.869 372.508 218.758 372.628 218.688L374.842 217.45C374.965 217.386 375.109 217.37 375.243 217.405C375.378 217.44 375.493 217.525 375.562 217.639C375.631 217.757 375.648 217.895 375.611 218.024C375.574 218.153 375.485 218.264 375.363 218.332L373.149 219.569C373.071 219.61 372.983 219.632 372.894 219.632Z" fill="#BA68C8"/>
<path d="M380.212 215.594C380.119 215.595 380.028 215.572 379.948 215.528C379.868 215.484 379.803 215.419 379.758 215.342C379.721 215.286 379.696 215.222 379.685 215.156C379.674 215.09 379.678 215.023 379.695 214.958C379.713 214.893 379.744 214.832 379.788 214.779C379.831 214.727 379.885 214.683 379.946 214.65L385.017 211.839C385.078 211.805 385.146 211.784 385.215 211.775C385.285 211.766 385.356 211.771 385.424 211.788C385.492 211.806 385.556 211.836 385.612 211.877C385.667 211.918 385.713 211.97 385.748 212.028C385.817 212.145 385.834 212.283 385.797 212.412C385.76 212.542 385.671 212.652 385.549 212.72L380.467 215.521C380.391 215.567 380.303 215.592 380.212 215.594ZM390.365 209.983C390.271 209.982 390.179 209.959 390.097 209.915C390.016 209.871 389.948 209.807 389.9 209.731C389.831 209.614 389.814 209.476 389.851 209.346C389.888 209.217 389.977 209.107 390.099 209.039L395.17 206.228C395.293 206.161 395.44 206.143 395.577 206.179C395.714 206.214 395.83 206.3 395.901 206.416C395.971 206.533 395.99 206.672 395.952 206.802C395.915 206.931 395.825 207.042 395.701 207.109L390.631 209.909C390.555 209.969 390.463 210.005 390.365 210.014V209.983Z" fill="#BA68C8"/>
<path d="M400.518 204.371C400.424 204.371 400.331 204.348 400.25 204.303C400.168 204.259 400.1 204.196 400.053 204.119C399.984 204.002 399.966 203.864 400.004 203.735C400.041 203.606 400.13 203.495 400.252 203.427L401.68 202.63L400.252 201.833C400.191 201.8 400.137 201.756 400.094 201.703C400.051 201.65 400.019 201.59 400.001 201.526C399.982 201.462 399.977 201.394 399.986 201.328C399.995 201.262 400.018 201.199 400.053 201.141C400.087 201.083 400.134 201.032 400.19 200.991C400.245 200.95 400.309 200.92 400.377 200.903C400.445 200.885 400.515 200.881 400.585 200.889C400.655 200.897 400.722 200.919 400.783 200.952L402.998 202.19C403.098 202.249 403.175 202.336 403.219 202.44C403.263 202.544 403.271 202.658 403.241 202.766C403.219 202.845 403.177 202.917 403.119 202.977C403.061 203.038 402.989 203.084 402.909 203.113L400.695 204.298C400.642 204.335 400.582 204.36 400.518 204.371Z" fill="#BA68C8"/>
<path d="M396.111 199.463C396.018 199.464 395.927 199.442 395.845 199.4L391.417 196.966C391.295 196.898 391.206 196.788 391.168 196.658C391.131 196.529 391.149 196.391 391.217 196.274C391.251 196.216 391.296 196.165 391.351 196.124C391.405 196.083 391.468 196.053 391.535 196.035C391.602 196.018 391.672 196.013 391.741 196.022C391.81 196.03 391.877 196.052 391.937 196.085L396.366 198.519C396.486 198.588 396.573 198.699 396.608 198.829C396.643 198.958 396.624 199.095 396.554 199.211C396.51 199.286 396.445 199.348 396.368 199.392C396.29 199.437 396.202 199.461 396.111 199.463ZM387.254 194.596C387.163 194.597 387.074 194.572 386.999 194.522L382.57 192.089C382.45 192.019 382.364 191.908 382.328 191.779C382.293 191.65 382.313 191.513 382.382 191.397C382.452 191.282 382.566 191.198 382.701 191.162C382.836 191.127 382.98 191.143 383.102 191.208L387.531 193.641C387.653 193.711 387.743 193.824 387.78 193.955C387.817 194.086 387.799 194.225 387.73 194.344C387.684 194.418 387.619 194.479 387.542 194.523C387.465 194.567 387.377 194.592 387.287 194.596H387.254Z" fill="#BA68C8"/>
<path d="M378.474 189.719C378.381 189.718 378.29 189.696 378.208 189.656L375.994 188.418C375.874 188.348 375.787 188.237 375.752 188.108C375.717 187.979 375.736 187.842 375.806 187.726C375.875 187.611 375.99 187.527 376.125 187.491C376.259 187.456 376.403 187.472 376.525 187.537L378.74 188.775C378.843 188.829 378.925 188.915 378.971 189.018C379.018 189.121 379.027 189.236 378.996 189.345C378.965 189.453 378.897 189.549 378.803 189.617C378.708 189.685 378.592 189.72 378.474 189.719Z" fill="#BA68C8"/>
<path d="M370.646 261.325C370.554 261.325 370.463 261.301 370.383 261.257C370.303 261.213 370.238 261.149 370.192 261.073C370.124 260.956 370.106 260.818 370.143 260.688C370.181 260.559 370.27 260.449 370.392 260.381L372.606 259.143C372.728 259.078 372.872 259.062 373.007 259.097C373.141 259.133 373.256 259.217 373.326 259.332C373.394 259.449 373.412 259.587 373.375 259.716C373.337 259.846 373.248 259.956 373.126 260.024L370.912 261.262C370.831 261.304 370.739 261.326 370.646 261.325Z" fill="#BA68C8"/>
<path d="M319.672 289.507C319.58 289.507 319.489 289.484 319.409 289.44C319.33 289.396 319.264 289.332 319.218 289.256C319.182 289.199 319.159 289.135 319.149 289.07C319.139 289.004 319.143 288.937 319.16 288.872C319.178 288.808 319.209 288.748 319.251 288.695C319.293 288.642 319.346 288.597 319.407 288.563L323.658 286.214C323.78 286.149 323.924 286.133 324.059 286.168C324.194 286.204 324.308 286.288 324.378 286.403C324.414 286.46 324.437 286.523 324.447 286.589C324.457 286.655 324.453 286.722 324.436 286.786C324.418 286.85 324.388 286.911 324.345 286.964C324.303 287.017 324.25 287.061 324.19 287.095L319.938 289.445C319.856 289.486 319.765 289.508 319.672 289.507ZM328.175 284.809C328.081 284.81 327.988 284.788 327.906 284.744C327.824 284.699 327.756 284.635 327.71 284.557C327.642 284.44 327.624 284.302 327.661 284.172C327.699 284.043 327.788 283.933 327.91 283.865L332.15 281.515C332.211 281.482 332.278 281.461 332.348 281.452C332.418 281.444 332.489 281.449 332.557 281.466C332.625 281.484 332.688 281.514 332.744 281.554C332.799 281.595 332.846 281.646 332.881 281.704C332.916 281.762 332.938 281.826 332.947 281.892C332.956 281.958 332.951 282.025 332.932 282.089C332.914 282.153 332.882 282.214 332.839 282.266C332.796 282.319 332.743 282.363 332.682 282.396L328.43 284.746C328.352 284.787 328.265 284.809 328.175 284.809ZM336.667 280.12C336.575 280.121 336.483 280.098 336.403 280.054C336.323 280.01 336.258 279.945 336.213 279.868C336.14 279.751 336.119 279.612 336.154 279.48C336.19 279.349 336.279 279.235 336.402 279.166L340.609 276.827C340.668 276.793 340.734 276.771 340.803 276.761C340.871 276.752 340.941 276.756 341.008 276.772C341.075 276.789 341.138 276.818 341.193 276.858C341.248 276.898 341.294 276.948 341.328 277.005C341.398 277.121 341.417 277.258 341.382 277.387C341.347 277.516 341.26 277.628 341.14 277.697L336.889 280.047C336.822 280.088 336.746 280.113 336.667 280.12ZM345.159 275.421C345.067 275.419 344.977 275.395 344.898 275.351C344.819 275.307 344.752 275.244 344.705 275.169C344.636 275.053 344.616 274.916 344.652 274.787C344.687 274.658 344.773 274.547 344.894 274.477L349.145 272.128C349.204 272.092 349.27 272.069 349.339 272.059C349.408 272.049 349.478 272.052 349.546 272.069C349.613 272.086 349.676 272.115 349.731 272.156C349.786 272.197 349.832 272.248 349.865 272.306C349.902 272.363 349.927 272.426 349.938 272.492C349.949 272.558 349.945 272.626 349.928 272.69C349.91 272.755 349.879 272.816 349.835 272.869C349.792 272.922 349.738 272.966 349.677 272.998L345.425 275.348C345.346 275.397 345.254 275.423 345.159 275.421ZM353.662 270.722C353.544 270.724 353.428 270.688 353.333 270.621C353.239 270.553 353.171 270.457 353.14 270.349C353.11 270.24 353.118 270.125 353.165 270.022C353.211 269.918 353.293 269.833 353.397 269.778L357.648 267.429C357.708 267.395 357.775 267.374 357.844 267.365C357.913 267.357 357.983 267.361 358.05 267.379C358.117 267.397 358.18 267.427 358.234 267.468C358.289 267.509 358.334 267.56 358.368 267.618C358.436 267.735 358.454 267.873 358.417 268.002C358.38 268.131 358.29 268.242 358.168 268.31L353.895 270.659C353.823 270.695 353.744 270.717 353.662 270.722ZM362.154 266.023C362.061 266.026 361.97 266.003 361.889 265.959C361.809 265.914 361.744 265.85 361.7 265.772C361.664 265.715 361.641 265.651 361.631 265.586C361.621 265.52 361.625 265.453 361.642 265.388C361.66 265.324 361.691 265.264 361.733 265.211C361.775 265.158 361.828 265.113 361.889 265.079L366.14 262.73C366.262 262.665 366.406 262.649 366.541 262.684C366.676 262.72 366.79 262.804 366.86 262.919C366.896 262.976 366.919 263.039 366.929 263.105C366.939 263.171 366.935 263.238 366.918 263.302C366.9 263.366 366.87 263.427 366.827 263.48C366.785 263.533 366.732 263.577 366.672 263.611L362.42 265.96C362.338 266.001 362.247 266.023 362.154 266.023Z" fill="#BA68C8"/>
<path d="M313.184 293.095C313.092 293.093 313.002 293.068 312.923 293.024C312.844 292.98 312.777 292.918 312.73 292.843C312.661 292.727 312.642 292.59 312.677 292.461C312.712 292.332 312.799 292.22 312.919 292.151L315.133 290.913C315.193 290.88 315.26 290.858 315.329 290.849C315.398 290.841 315.468 290.846 315.535 290.863C315.602 290.881 315.665 290.911 315.719 290.952C315.774 290.993 315.819 291.044 315.853 291.102C315.921 291.219 315.939 291.357 315.902 291.486C315.864 291.616 315.775 291.726 315.653 291.794L313.439 293.032C313.361 293.073 313.273 293.094 313.184 293.095Z" fill="#BA68C8"/>
<path d="M310.937 334.829C310.844 334.829 310.754 334.806 310.674 334.761C310.594 334.717 310.528 334.654 310.483 334.577C310.416 334.461 310.398 334.324 310.433 334.196C310.468 334.068 310.553 333.956 310.671 333.885L312.885 332.647C313.007 332.583 313.151 332.566 313.286 332.602C313.421 332.637 313.535 332.721 313.605 332.836C313.674 332.953 313.691 333.091 313.654 333.221C313.617 333.35 313.528 333.46 313.406 333.528L311.191 334.766C311.113 334.807 311.026 334.828 310.937 334.829Z" fill="#BA68C8"/>
<path d="M259.963 362.97C259.87 362.972 259.778 362.95 259.698 362.905C259.618 362.861 259.552 362.796 259.509 362.718C259.473 362.661 259.449 362.598 259.439 362.532C259.429 362.466 259.433 362.399 259.451 362.335C259.468 362.271 259.499 362.21 259.541 362.157C259.584 362.104 259.637 362.06 259.697 362.026L263.949 359.677C264.071 359.612 264.215 359.596 264.349 359.631C264.484 359.666 264.599 359.751 264.668 359.865C264.704 359.922 264.728 359.986 264.738 360.051C264.748 360.117 264.744 360.184 264.726 360.249C264.709 360.313 264.678 360.373 264.636 360.426C264.594 360.479 264.541 360.524 264.48 360.558L260.228 362.907C260.146 362.948 260.055 362.969 259.963 362.97ZM268.455 358.271C268.362 358.271 268.272 358.248 268.192 358.204C268.112 358.159 268.046 358.096 268.001 358.019C267.934 357.903 267.916 357.767 267.951 357.638C267.986 357.51 268.071 357.399 268.189 357.327L272.441 354.978C272.502 354.945 272.569 354.923 272.639 354.915C272.709 354.906 272.779 354.911 272.847 354.929C272.915 354.946 272.979 354.976 273.034 355.017C273.09 355.058 273.136 355.109 273.171 355.166C273.206 355.224 273.229 355.288 273.238 355.354C273.246 355.42 273.241 355.487 273.223 355.552C273.204 355.616 273.173 355.676 273.13 355.729C273.087 355.781 273.033 355.826 272.972 355.859L268.72 358.208C268.639 358.251 268.548 358.272 268.455 358.271ZM276.958 353.583C276.863 353.582 276.769 353.558 276.687 353.512C276.606 353.466 276.538 353.4 276.493 353.32C276.424 353.203 276.407 353.065 276.444 352.936C276.481 352.807 276.57 352.696 276.692 352.628L280.944 350.289C281.003 350.255 281.069 350.233 281.138 350.224C281.206 350.215 281.276 350.218 281.343 350.235C281.41 350.252 281.473 350.281 281.528 350.321C281.583 350.361 281.629 350.41 281.663 350.467C281.732 350.585 281.749 350.723 281.712 350.852C281.675 350.981 281.586 351.092 281.464 351.16L277.224 353.509C277.144 353.557 277.052 353.583 276.958 353.583ZM285.45 348.884C285.331 348.886 285.215 348.85 285.121 348.782C285.026 348.714 284.958 348.619 284.928 348.51C284.897 348.402 284.906 348.286 284.952 348.183C284.999 348.08 285.08 347.994 285.184 347.94L289.436 345.59C289.495 345.555 289.561 345.532 289.629 345.521C289.698 345.511 289.769 345.515 289.836 345.532C289.904 345.548 289.967 345.578 290.022 345.619C290.077 345.659 290.122 345.71 290.155 345.769C290.193 345.825 290.218 345.889 290.228 345.955C290.239 346.021 290.236 346.088 290.218 346.153C290.2 346.218 290.169 346.278 290.126 346.331C290.083 346.384 290.029 346.428 289.967 346.461L285.716 348.81C285.637 348.86 285.544 348.885 285.45 348.884ZM293.953 344.185C293.834 344.187 293.718 344.151 293.624 344.083C293.529 344.015 293.461 343.92 293.431 343.811C293.4 343.703 293.409 343.588 293.455 343.484C293.502 343.381 293.583 343.295 293.687 343.241L297.928 340.891C297.988 340.858 298.056 340.836 298.126 340.827C298.196 340.819 298.267 340.823 298.335 340.841C298.403 340.858 298.466 340.889 298.522 340.93C298.577 340.971 298.624 341.022 298.658 341.08C298.727 341.197 298.744 341.335 298.707 341.465C298.67 341.594 298.581 341.704 298.459 341.772L294.207 344.122C294.13 344.164 294.042 344.185 293.953 344.185ZM302.445 339.486C302.352 339.488 302.26 339.466 302.18 339.421C302.1 339.377 302.034 339.312 301.991 339.234C301.955 339.177 301.931 339.114 301.921 339.048C301.911 338.982 301.915 338.915 301.933 338.851C301.95 338.787 301.981 338.726 302.023 338.673C302.066 338.62 302.119 338.575 302.179 338.542L306.431 336.192C306.553 336.128 306.697 336.112 306.831 336.147C306.966 336.182 307.081 336.266 307.15 336.381C307.217 336.498 307.235 336.634 307.2 336.762C307.165 336.891 307.08 337.002 306.962 337.074L302.71 339.423C302.628 339.464 302.537 339.485 302.445 339.486Z" fill="#BA68C8"/>
<path d="M253.475 366.557C253.383 366.555 253.293 366.531 253.213 366.487C253.134 366.443 253.068 366.38 253.021 366.305C252.951 366.189 252.932 366.052 252.967 365.923C253.002 365.794 253.089 365.683 253.209 365.613L255.423 364.375C255.484 364.342 255.552 364.32 255.622 364.311C255.691 364.303 255.762 364.307 255.83 364.325C255.898 364.342 255.962 364.373 256.018 364.414C256.073 364.455 256.12 364.506 256.154 364.564C256.223 364.681 256.24 364.819 256.203 364.949C256.166 365.078 256.077 365.189 255.955 365.256L253.74 366.494C253.659 366.536 253.568 366.557 253.475 366.557Z" fill="#BA68C8"/>
<path d="M288.417 58.5162C286.836 59.2863 285.085 59.688 283.307 59.688C281.53 59.688 279.778 59.2863 278.198 58.5162C275.386 56.9638 275.386 54.4361 278.198 52.8733C279.778 52.1032 281.53 51.7014 283.307 51.7014C285.085 51.7014 286.836 52.1032 288.417 52.8733C291.24 54.4361 291.24 56.9638 288.417 58.5162Z" fill="#455A64"/>
<path d="M283.313 28.5186V5.80023L314.303 17.1594L283.313 28.5186Z" fill="#BA68C8"/>
<path d="M283.313 56.7121C283.019 56.7121 282.738 56.6016 282.53 56.4049C282.322 56.2082 282.206 55.9415 282.206 55.6633V1.34261C282.158 1.18629 282.149 1.0215 282.179 0.861298C282.21 0.701093 282.28 0.549869 282.383 0.419604C282.486 0.289339 282.62 0.183612 282.774 0.110791C282.927 0.0379712 283.097 6.10352e-05 283.269 6.10352e-05C283.441 6.10352e-05 283.61 0.0379712 283.764 0.110791C283.918 0.183612 284.051 0.289339 284.154 0.419604C284.258 0.549869 284.327 0.701093 284.358 0.861298C284.389 1.0215 284.38 1.18629 284.332 1.34261V55.6947C284.324 55.9535 284.216 56.2006 284.028 56.3884C283.84 56.5762 283.585 56.6915 283.313 56.7121Z" fill="#263238"/>
<path d="M301.524 94.869V94.4209L302.209 93.3206C302.252 93.2494 302.284 93.1908 302.304 93.1448C302.325 93.0979 302.34 93.059 302.347 93.0282C302.354 92.9954 302.358 92.9667 302.358 92.9419C302.358 92.8884 302.342 92.8556 302.312 92.8437C302.281 92.8297 302.235 92.8396 302.174 92.8733C302.118 92.9042 302.065 92.951 302.014 93.0138C301.964 93.0746 301.924 93.1459 301.895 93.2278L301.413 93.2181C301.482 93.032 301.585 92.8548 301.722 92.6866C301.859 92.5183 302.029 92.3781 302.233 92.2657C302.383 92.1833 302.516 92.138 302.631 92.13C302.747 92.122 302.837 92.1506 302.902 92.2158C302.967 92.281 302.999 92.3826 302.999 92.5206C302.999 92.5906 302.991 92.6652 302.975 92.7442C302.961 92.8222 302.93 92.9132 302.883 93.0174C302.836 93.1194 302.767 93.2432 302.675 93.3886L302.16 94.2065L302.06 94.0083L303.043 93.4671V94.0326L301.524 94.869ZM304.032 93.5373C303.864 93.6297 303.715 93.6674 303.585 93.6504C303.457 93.6324 303.356 93.5593 303.282 93.4311C303.21 93.3019 303.174 93.1178 303.174 92.8789C303.174 92.6399 303.21 92.416 303.282 92.2073C303.356 91.9977 303.457 91.8132 303.585 91.6541C303.715 91.4939 303.864 91.3676 304.032 91.2752C304.2 91.1828 304.348 91.1456 304.476 91.1636C304.606 91.1806 304.707 91.2537 304.779 91.3829C304.853 91.5111 304.89 91.6947 304.89 91.9336C304.89 92.1726 304.853 92.397 304.779 92.6066C304.707 92.8153 304.606 92.9998 304.476 93.1599C304.348 93.3191 304.2 93.4449 304.032 93.5373ZM304.032 92.9532C304.073 92.9304 304.11 92.8935 304.143 92.8427C304.175 92.7918 304.2 92.7212 304.219 92.631C304.238 92.5397 304.248 92.425 304.248 92.287C304.248 92.1469 304.238 92.0432 304.219 91.9758C304.2 91.9054 304.175 91.8627 304.143 91.8476C304.11 91.8325 304.073 91.8364 304.032 91.8593C303.99 91.8821 303.953 91.919 303.921 91.9698C303.888 92.0207 303.862 92.0918 303.842 92.183C303.824 92.2713 303.815 92.3854 303.815 92.5255C303.815 92.6636 303.824 92.7678 303.842 92.8382C303.862 92.9076 303.888 92.9498 303.921 92.9649C303.953 92.98 303.99 92.9761 304.032 92.9532ZM305.957 92.4767C305.777 92.5761 305.618 92.6244 305.481 92.6217C305.346 92.6159 305.239 92.556 305.162 92.4422C305.086 92.3253 305.048 92.1494 305.048 91.9146C305.048 91.6612 305.092 91.4215 305.181 91.1957C305.269 90.9677 305.392 90.7631 305.549 90.5819C305.707 90.3996 305.891 90.2514 306.098 90.1371C306.21 90.0755 306.317 90.0318 306.42 90.006C306.525 89.9772 306.613 89.9697 306.686 89.9835L306.455 90.6201C306.4 90.6056 306.343 90.6071 306.285 90.6245C306.229 90.6388 306.171 90.6623 306.112 90.6951C305.984 90.7657 305.881 90.8667 305.803 90.998C305.727 91.1263 305.689 91.2738 305.689 91.4407C305.689 91.4716 305.689 91.5025 305.689 91.5334C305.689 91.5623 305.689 91.5921 305.689 91.623L305.543 91.583C305.579 91.4931 305.622 91.411 305.67 91.3368C305.719 91.2605 305.777 91.1916 305.844 91.1301C305.91 91.0666 305.988 91.0105 306.076 90.9618C306.192 90.8981 306.298 90.8683 306.396 90.8724C306.495 90.8733 306.575 90.9089 306.634 90.9791C306.695 91.0483 306.726 91.154 306.726 91.2962C306.726 91.4507 306.692 91.6035 306.623 91.7546C306.555 91.9056 306.462 92.0444 306.344 92.1708C306.229 92.2962 306.1 92.3982 305.957 92.4767ZM305.914 91.9968C305.952 91.976 305.985 91.9493 306.014 91.917C306.045 91.8815 306.068 91.8428 306.085 91.8009C306.101 91.759 306.109 91.7154 306.109 91.6701C306.109 91.6021 306.091 91.5585 306.055 91.5392C306.019 91.5179 305.972 91.5231 305.914 91.5549C305.876 91.5758 305.843 91.6035 305.814 91.6379C305.785 91.6723 305.762 91.711 305.744 91.7539C305.727 91.7958 305.719 91.8394 305.719 91.8848C305.719 91.9301 305.727 91.9648 305.744 91.9888C305.762 92.0118 305.785 92.0246 305.814 92.0273C305.843 92.0279 305.876 92.0177 305.914 91.9968ZM307.696 91.5194C307.528 91.6118 307.379 91.6495 307.249 91.6325C307.121 91.6144 307.02 91.5413 306.946 91.4132C306.874 91.284 306.837 91.0999 306.837 90.8609C306.837 90.6219 306.874 90.3981 306.946 90.1894C307.02 89.9797 307.121 89.7953 307.249 89.6361C307.379 89.476 307.528 89.3497 307.696 89.2572C307.863 89.1648 308.011 89.1276 308.139 89.1456C308.269 89.1627 308.37 89.2358 308.443 89.3649C308.517 89.4931 308.554 89.6767 308.554 89.9157C308.554 90.1547 308.517 90.379 308.443 90.5887C308.37 90.7974 308.269 90.9818 308.139 91.142C308.011 91.3011 307.863 91.4269 307.696 91.5194ZM307.696 90.9353C307.737 90.9124 307.774 90.8756 307.807 90.8247C307.839 90.7739 307.864 90.7033 307.882 90.613C307.902 90.5217 307.912 90.4071 307.912 90.269C307.912 90.1289 307.902 90.0252 307.882 89.9579C307.864 89.8874 307.839 89.8447 307.807 89.8296C307.774 89.8146 307.737 89.8185 307.696 89.8413C307.654 89.8642 307.617 89.901 307.585 89.9519C307.552 90.0027 307.526 90.0738 307.506 90.1651C307.488 90.2533 307.479 90.3675 307.479 90.5076C307.479 90.6456 307.488 90.7498 307.506 90.8202C307.526 90.8897 307.552 90.9319 307.585 90.947C307.617 90.962 307.654 90.9581 307.696 90.9353Z" fill="#F4F4F4"/>
<path d="M361.433 168.226V167.778L362.118 166.678C362.161 166.607 362.193 166.548 362.212 166.502C362.234 166.455 362.249 166.416 362.256 166.386C362.263 166.353 362.267 166.324 362.267 166.299C362.267 166.246 362.251 166.213 362.221 166.201C362.19 166.187 362.144 166.197 362.083 166.231C362.027 166.262 361.973 166.308 361.923 166.371C361.872 166.432 361.833 166.503 361.804 166.585L361.322 166.576C361.391 166.389 361.493 166.212 361.631 166.044C361.768 165.876 361.938 165.735 362.142 165.623C362.292 165.541 362.425 165.495 362.54 165.487C362.656 165.479 362.746 165.508 362.811 165.573C362.876 165.638 362.908 165.74 362.908 165.878C362.908 165.948 362.9 166.023 362.884 166.102C362.869 166.18 362.839 166.271 362.792 166.375C362.745 166.477 362.675 166.601 362.583 166.746L362.069 167.564L361.969 167.366L362.951 166.825V167.39L361.433 168.226ZM363.941 166.895C363.773 166.987 363.624 167.025 363.494 167.008C363.366 166.99 363.265 166.917 363.191 166.789C363.119 166.659 363.082 166.475 363.082 166.236C363.082 165.997 363.119 165.773 363.191 165.565C363.265 165.355 363.366 165.171 363.494 165.012C363.624 164.851 363.773 164.725 363.941 164.633C364.108 164.54 364.256 164.503 364.384 164.521C364.514 164.538 364.615 164.611 364.688 164.74C364.762 164.868 364.799 165.052 364.799 165.291C364.799 165.53 364.762 165.754 364.688 165.964C364.615 166.173 364.514 166.357 364.384 166.517C364.256 166.676 364.108 166.802 363.941 166.895ZM363.941 166.311C363.982 166.288 364.019 166.251 364.052 166.2C364.084 166.149 364.109 166.079 364.127 165.988C364.147 165.897 364.157 165.782 364.157 165.644C364.157 165.504 364.147 165.401 364.127 165.333C364.109 165.263 364.084 165.22 364.052 165.205C364.019 165.19 363.982 165.194 363.941 165.217C363.899 165.24 363.862 165.276 363.83 165.327C363.797 165.378 363.771 165.449 363.751 165.54C363.733 165.629 363.724 165.743 363.724 165.883C363.724 166.021 363.733 166.125 363.751 166.196C363.771 166.265 363.797 166.307 363.83 166.322C363.862 166.337 363.899 166.334 363.941 166.311ZM365.639 165.959C365.509 166.031 365.377 166.087 365.244 166.128C365.11 166.168 364.993 166.184 364.892 166.176L365.108 165.519C365.189 165.528 365.274 165.521 365.363 165.5C365.451 165.476 365.535 165.442 365.614 165.398C365.687 165.358 365.746 165.311 365.793 165.256C365.84 165.202 365.863 165.146 365.863 165.091C365.863 165.06 365.855 165.038 365.839 165.024C365.823 165.008 365.794 165.006 365.753 165.016C365.713 165.026 365.654 165.052 365.577 165.094L365.027 165.397L365.122 164.031L366.381 163.338V163.888L365.346 164.458L365.669 163.968L365.612 164.837L365.29 164.702L365.731 164.459C365.919 164.356 366.068 164.304 366.18 164.305C366.294 164.304 366.376 164.342 366.427 164.419C366.479 164.493 366.505 164.594 366.505 164.722C366.505 164.85 366.474 164.989 366.413 165.14C366.353 165.289 366.26 165.435 366.131 165.58C366.005 165.722 365.841 165.848 365.639 165.959ZM367.491 164.939C367.323 165.032 367.174 165.07 367.044 165.052C366.916 165.034 366.815 164.961 366.741 164.833C366.669 164.704 366.633 164.52 366.633 164.281C366.633 164.042 366.669 163.818 366.741 163.609C366.815 163.4 366.916 163.215 367.044 163.056C367.174 162.896 367.323 162.77 367.491 162.677C367.659 162.585 367.807 162.548 367.935 162.566C368.065 162.583 368.166 162.656 368.238 162.785C368.312 162.913 368.349 163.097 368.349 163.336C368.349 163.575 368.312 163.799 368.238 164.009C368.166 164.217 368.065 164.402 367.935 164.562C367.807 164.721 367.659 164.847 367.491 164.939ZM367.491 164.355C367.532 164.332 367.569 164.296 367.602 164.245C367.634 164.194 367.659 164.123 367.677 164.033C367.697 163.942 367.707 163.827 367.707 163.689C367.707 163.549 367.697 163.445 367.677 163.378C367.659 163.307 367.634 163.265 367.602 163.25C367.569 163.235 367.532 163.238 367.491 163.261C367.449 163.284 367.412 163.321 367.38 163.372C367.347 163.423 367.321 163.494 367.301 163.585C367.283 163.673 367.274 163.788 367.274 163.928C367.274 164.066 367.283 164.17 367.301 164.24C367.321 164.31 367.347 164.352 367.38 164.367C367.412 164.382 367.449 164.378 367.491 164.355Z" fill="#F4F4F4"/>
<path d="M360.979 228.756V228.308L361.664 227.962C361.707 227.939 361.739 227.915 361.759 227.891C361.78 227.868 361.795 227.845 361.802 227.822C361.809 227.797 361.813 227.772 361.813 227.747C361.813 227.694 361.797 227.644 361.767 227.598C361.736 227.551 361.69 227.51 361.629 227.476C361.573 227.445 361.519 227.433 361.469 227.441C361.418 227.446 361.379 227.473 361.35 227.523L360.868 226.983C360.937 226.872 361.039 226.809 361.177 226.791C361.314 226.774 361.484 226.822 361.688 226.934C361.838 227.017 361.971 227.117 362.086 227.237C362.202 227.356 362.292 227.484 362.357 227.621C362.422 227.757 362.454 227.895 362.454 228.033C362.454 228.103 362.446 228.168 362.43 228.229C362.415 228.292 362.385 228.349 362.338 228.401C362.291 228.452 362.221 228.499 362.129 228.543L361.615 228.794L361.515 228.486L362.498 229.027V229.592L360.979 228.756ZM363.487 230.187C363.319 230.094 363.17 229.968 363.04 229.808C362.912 229.649 362.811 229.464 362.737 229.255C362.665 229.046 362.629 228.822 362.629 228.583C362.629 228.344 362.665 228.16 362.737 228.031C362.811 227.903 362.912 227.83 363.04 227.811C363.17 227.794 363.319 227.832 363.487 227.925C363.654 228.017 363.802 228.143 363.931 228.302C364.06 228.462 364.162 228.647 364.234 228.855C364.308 229.065 364.345 229.289 364.345 229.528C364.345 229.767 364.308 229.951 364.234 230.079C364.162 230.208 364.06 230.281 363.931 230.298C363.802 230.316 363.654 230.279 363.487 230.187ZM363.487 229.603C363.528 229.625 363.565 229.629 363.598 229.614C363.63 229.599 363.655 229.557 363.673 229.486C363.693 229.417 363.703 229.313 363.703 229.175C363.703 229.035 363.693 228.92 363.673 228.831C363.655 228.741 363.63 228.67 363.598 228.619C363.565 228.568 363.528 228.532 363.487 228.509C363.445 228.486 363.408 228.482 363.376 228.497C363.343 228.512 363.317 228.554 363.297 228.624C363.279 228.692 363.27 228.796 363.27 228.936C363.27 229.074 363.279 229.189 363.297 229.279C363.317 229.37 363.343 229.441 363.376 229.492C363.408 229.543 363.445 229.58 363.487 229.603ZM364.486 230.317V229.854L365.29 228.968L365.945 229.328L365.171 230.231L364.874 229.965L366.341 230.773V231.338L364.486 230.317ZM365.469 231.229V230.858L365.488 230.303V229.973L366.089 230.304V231.571L365.469 231.229ZM367.288 232.28C367.12 232.188 366.971 232.062 366.841 231.901C366.713 231.742 366.612 231.558 366.538 231.348C366.466 231.14 366.43 230.916 366.43 230.677C366.43 230.438 366.466 230.254 366.538 230.124C366.612 229.996 366.713 229.923 366.841 229.905C366.971 229.888 367.12 229.926 367.288 230.018C367.456 230.111 367.604 230.236 367.732 230.396C367.862 230.556 367.963 230.74 368.035 230.949C368.109 231.159 368.146 231.383 368.146 231.622C368.146 231.861 368.109 232.044 368.035 232.173C367.963 232.302 367.862 232.375 367.732 232.392C367.604 232.41 367.456 232.373 367.288 232.28ZM367.288 231.696C367.329 231.719 367.366 231.723 367.399 231.708C367.431 231.693 367.457 231.65 367.475 231.58C367.494 231.51 367.504 231.407 367.504 231.269C367.504 231.128 367.494 231.014 367.475 230.925C367.457 230.834 367.431 230.764 367.399 230.713C367.366 230.662 367.329 230.625 367.288 230.602C367.246 230.579 367.209 230.576 367.177 230.591C367.144 230.606 367.118 230.648 367.098 230.717C367.08 230.786 367.071 230.89 367.071 231.03C367.071 231.168 367.08 231.282 367.098 231.373C367.118 231.464 367.144 231.535 367.177 231.586C367.209 231.637 367.246 231.673 367.288 231.696Z" fill="#F4F4F4"/>
<path d="M301.746 302.491V302.043L302.43 301.697C302.474 301.674 302.505 301.65 302.525 301.626C302.547 301.603 302.561 301.58 302.568 301.557C302.576 301.532 302.579 301.507 302.579 301.483C302.579 301.429 302.564 301.379 302.533 301.334C302.503 301.286 302.457 301.245 302.395 301.211C302.339 301.18 302.286 301.169 302.236 301.176C302.185 301.181 302.145 301.208 302.116 301.258L301.635 300.718C301.703 300.607 301.806 300.544 301.943 300.526C302.08 300.509 302.251 300.557 302.455 300.669C302.605 300.752 302.737 300.853 302.853 300.972C302.968 301.091 303.058 301.219 303.123 301.356C303.188 301.492 303.221 301.63 303.221 301.768C303.221 301.838 303.213 301.903 303.196 301.965C303.182 302.027 303.151 302.084 303.104 302.136C303.058 302.187 302.988 302.234 302.896 302.278L302.382 302.529L302.282 302.221L303.264 302.762V303.328L301.746 302.491ZM304.256 303.923C304.087 303.831 303.938 303.704 303.808 303.543C303.679 303.384 303.578 303.199 303.504 302.989C303.432 302.779 303.395 302.555 303.395 302.315C303.395 302.076 303.432 301.891 303.504 301.762C303.578 301.633 303.679 301.56 303.808 301.542C303.938 301.525 304.087 301.563 304.256 301.655C304.424 301.748 304.572 301.874 304.701 302.034C304.831 302.194 304.932 302.379 305.005 302.588C305.079 302.799 305.116 303.024 305.116 303.263C305.116 303.503 305.079 303.687 305.005 303.815C304.932 303.945 304.831 304.018 304.701 304.035C304.572 304.053 304.424 304.016 304.256 303.923ZM304.256 303.338C304.297 303.361 304.334 303.365 304.367 303.349C304.4 303.334 304.425 303.291 304.443 303.221C304.463 303.151 304.473 303.047 304.473 302.909C304.473 302.768 304.463 302.653 304.443 302.564C304.425 302.473 304.4 302.403 304.367 302.352C304.334 302.301 304.297 302.264 304.256 302.241C304.214 302.218 304.177 302.214 304.144 302.229C304.112 302.244 304.086 302.287 304.066 302.356C304.048 302.425 304.039 302.529 304.039 302.67C304.039 302.808 304.048 302.923 304.066 303.013C304.086 303.105 304.112 303.176 304.144 303.227C304.177 303.278 304.214 303.315 304.256 303.338ZM305.902 304.83C305.772 304.758 305.64 304.669 305.506 304.562C305.372 304.455 305.254 304.342 305.153 304.222L305.37 303.803C305.451 303.901 305.537 303.988 305.625 304.064C305.716 304.139 305.801 304.198 305.88 304.242C305.953 304.282 306.011 304.301 306.057 304.299C306.104 304.296 306.127 304.266 306.127 304.211C306.127 304.163 306.11 304.117 306.076 304.074C306.041 304.028 305.983 303.983 305.902 303.938L305.65 303.799V303.349L306.141 303.05L306.198 303.326L305.251 302.804V302.253L306.667 303.033V303.482L306.176 303.782L305.869 303.415L306.038 303.507C306.277 303.639 306.458 303.8 306.583 303.991C306.708 304.181 306.77 304.373 306.77 304.565C306.77 304.689 306.74 304.791 306.678 304.87C306.618 304.951 306.524 304.992 306.396 304.994C306.269 304.996 306.105 304.942 305.902 304.83ZM307.775 305.862C307.607 305.769 307.458 305.643 307.328 305.482C307.199 305.322 307.098 305.137 307.024 304.927C306.951 304.718 306.915 304.494 306.915 304.254C306.915 304.014 306.951 303.83 307.024 303.7C307.098 303.572 307.199 303.498 307.328 303.48C307.458 303.463 307.607 303.501 307.775 303.594C307.944 303.687 308.092 303.813 308.22 303.972C308.351 304.133 308.452 304.318 308.524 304.527C308.599 304.737 308.636 304.962 308.636 305.202C308.636 305.441 308.599 305.625 308.524 305.754C308.452 305.883 308.351 305.957 308.22 305.974C308.092 305.992 307.944 305.955 307.775 305.862ZM307.775 305.276C307.817 305.299 307.854 305.303 307.887 305.288C307.919 305.273 307.945 305.23 307.963 305.159C307.982 305.09 307.992 304.986 307.992 304.847C307.992 304.707 307.982 304.592 307.963 304.503C307.945 304.412 307.919 304.341 307.887 304.29C307.854 304.239 307.817 304.202 307.775 304.179C307.734 304.157 307.697 304.153 307.664 304.168C307.631 304.183 307.605 304.225 307.585 304.295C307.567 304.363 307.558 304.468 307.558 304.608C307.558 304.747 307.567 304.861 307.585 304.952C307.605 305.043 307.631 305.114 307.664 305.165C307.697 305.216 307.734 305.253 307.775 305.276Z" fill="#F4F4F4"/>
<path d="M242.058 378.712V378.264L242.743 377.918C242.786 377.895 242.818 377.871 242.838 377.847C242.859 377.824 242.874 377.801 242.881 377.778C242.888 377.753 242.892 377.728 242.892 377.704C242.892 377.65 242.877 377.6 242.846 377.555C242.815 377.507 242.769 377.466 242.708 377.432C242.652 377.401 242.599 377.39 242.548 377.397C242.498 377.402 242.458 377.43 242.429 377.48L241.947 376.939C242.016 376.829 242.119 376.765 242.256 376.748C242.393 376.73 242.563 376.778 242.767 376.89C242.917 376.973 243.05 377.074 243.165 377.193C243.281 377.312 243.371 377.44 243.436 377.577C243.501 377.714 243.533 377.851 243.533 377.989C243.533 378.059 243.525 378.125 243.509 378.186C243.495 378.248 243.464 378.305 243.417 378.357C243.37 378.408 243.301 378.455 243.209 378.499L242.694 378.751L242.594 378.442L243.577 378.983V379.549L242.058 378.712ZM244.568 380.144C244.4 380.052 244.251 379.925 244.121 379.764C243.992 379.605 243.891 379.42 243.817 379.21C243.744 379.001 243.708 378.776 243.708 378.537C243.708 378.297 243.744 378.112 243.817 377.983C243.891 377.854 243.992 377.781 244.121 377.763C244.251 377.746 244.4 377.784 244.568 377.876C244.737 377.969 244.885 378.095 245.013 378.255C245.144 378.415 245.245 378.6 245.317 378.809C245.392 379.02 245.429 379.245 245.429 379.484C245.429 379.724 245.392 379.908 245.317 380.036C245.245 380.166 245.144 380.239 245.013 380.256C244.885 380.274 244.737 380.237 244.568 380.144ZM244.568 379.559C244.61 379.582 244.647 379.586 244.68 379.57C244.712 379.555 244.737 379.513 244.756 379.442C244.775 379.372 244.785 379.268 244.785 379.13C244.785 378.989 244.775 378.875 244.756 378.785C244.737 378.695 244.712 378.624 244.68 378.573C244.647 378.522 244.61 378.485 244.568 378.462C244.527 378.439 244.49 378.435 244.457 378.45C244.424 378.465 244.398 378.508 244.378 378.577C244.36 378.646 244.351 378.75 244.351 378.891C244.351 379.029 244.36 379.144 244.378 379.234C244.398 379.326 244.424 379.397 244.457 379.448C244.49 379.499 244.527 379.536 244.568 379.559ZM245.558 380.64V380.191L246.244 379.844C246.288 379.82 246.32 379.796 246.339 379.772C246.361 379.749 246.376 379.726 246.383 379.703C246.39 379.678 246.394 379.653 246.394 379.628C246.394 379.575 246.378 379.525 246.348 379.479C246.317 379.431 246.271 379.39 246.209 379.356C246.153 379.326 246.1 379.314 246.049 379.321C245.998 379.326 245.959 379.354 245.93 379.404L245.447 378.862C245.515 378.751 245.618 378.687 245.756 378.67C245.893 378.653 246.064 378.7 246.269 378.813C246.419 378.896 246.552 378.997 246.668 379.116C246.784 379.236 246.874 379.364 246.939 379.501C247.004 379.638 247.037 379.776 247.037 379.915C247.037 379.985 247.029 380.051 247.013 380.112C246.998 380.174 246.967 380.231 246.92 380.284C246.873 380.335 246.804 380.382 246.711 380.426L246.196 380.678L246.095 380.369L247.08 380.911V381.478L245.558 380.64ZM248.072 382.074C247.904 381.981 247.755 381.855 247.624 381.694C247.496 381.535 247.394 381.35 247.32 381.14C247.248 380.93 247.212 380.706 247.212 380.466C247.212 380.227 247.248 380.042 247.32 379.913C247.394 379.784 247.496 379.711 247.624 379.693C247.755 379.676 247.904 379.713 248.072 379.806C248.24 379.899 248.389 380.025 248.517 380.185C248.647 380.345 248.749 380.53 248.821 380.739C248.895 380.949 248.932 381.174 248.932 381.414C248.932 381.654 248.895 381.838 248.821 381.966C248.749 382.096 248.647 382.169 248.517 382.186C248.389 382.204 248.24 382.167 248.072 382.074ZM248.072 381.489C248.114 381.511 248.151 381.515 248.183 381.5C248.216 381.485 248.241 381.442 248.259 381.372C248.279 381.302 248.289 381.198 248.289 381.06C248.289 380.919 248.279 380.804 248.259 380.715C248.241 380.624 248.216 380.554 248.183 380.503C248.151 380.452 248.114 380.415 248.072 380.392C248.03 380.369 247.993 380.365 247.961 380.38C247.928 380.395 247.902 380.437 247.882 380.507C247.864 380.576 247.855 380.68 247.855 380.821C247.855 380.959 247.864 381.073 247.882 381.164C247.902 381.255 247.928 381.327 247.961 381.378C247.993 381.429 248.03 381.466 248.072 381.489Z" fill="#F4F4F4"/>
<path d="M230.568 230.907H217.614V250.689H230.568V230.907Z" fill="#FFA8A7"/>
<path d="M238.307 226.376L241.385 230.572C241.518 230.752 241.579 230.972 241.557 231.191C241.535 231.41 241.43 231.615 241.263 231.767C240.492 232.564 239.441 233.067 238.307 233.183V226.376Z" fill="#F28F8F"/>
<path d="M225.331 210.864C225.331 210.864 235.417 204.088 238.617 227.645C241.252 247.228 228.42 242.738 223.648 240.032C218.876 237.326 209.753 229.166 215.754 217.692C218.466 212.479 225.331 210.864 225.331 210.864Z" fill="#FFA8A7"/>
<path d="M234.631 218.405C234.631 218.405 234.708 222.695 230.568 222.904C231.592 224.03 232.112 225.49 232.018 226.974C232.018 229.764 231.01 229.229 230.568 228.694C230.125 228.159 225.53 228.694 225.53 228.694L227.877 232.89C228.164 234.479 228.017 236.112 227.449 237.632C226.881 239.153 225.912 240.51 224.633 241.574C224.633 241.574 218.477 243.179 215.676 241.574C215.676 241.574 207.926 233.425 206.498 227.645C205.069 221.866 205.047 216.821 208.623 214.461C208.623 214.461 209.731 207.172 217.913 207.172C226.095 207.172 228.497 209.164 232.915 208.22C234.708 207.843 237.399 206.616 237.399 208.325C237.399 210.035 235.184 211.472 235.184 211.472C235.184 211.472 237.399 211.356 238.595 211.252C239.79 211.147 242.459 210.769 242.005 214.042C241.551 217.314 238.462 218.971 234.631 218.405Z" fill="#263238"/>
<path d="M209.709 214.723C209.709 214.723 207.561 210.612 204.881 212.982C204.86 213 204.843 213.022 204.831 213.046C204.82 213.07 204.814 213.097 204.814 213.124C204.814 213.151 204.82 213.177 204.831 213.201C204.843 213.226 204.86 213.248 204.881 213.265L209.675 216.003L209.709 214.723Z" fill="#263238"/>
<path d="M230.567 228.726V235.092C230.567 235.092 223.615 234.966 223.615 230.089C223.615 225.6 229.206 226.607 230.567 228.726Z" fill="#FFA8A7"/>
<path d="M179.76 393.953C179.76 393.953 179.439 402.418 191.839 405.889C191.839 405.889 193.688 393.953 179.76 393.953Z" fill="#253239"/>
<path d="M189.425 413.001V407.903C189.424 406.827 189.683 405.764 190.182 404.797C190.681 403.83 191.407 402.984 192.304 402.323C192.304 402.323 190.466 394.887 183.026 395.327C180.621 396.206 178.55 397.748 177.08 399.753C176.539 400.438 176.16 401.226 175.969 402.062C175.778 402.898 175.78 403.763 175.973 404.599C175.924 404.41 175.932 404.212 175.995 404.027C176.057 403.842 176.174 403.677 176.33 403.551C176.486 403.425 176.676 403.342 176.879 403.312C177.082 403.282 177.29 403.307 177.479 403.382L179.273 404.085C180.391 404.52 181.38 405.208 182.152 406.09C182.924 406.971 183.456 408.019 183.701 409.141L185.916 419.052C186.1 419.974 186.579 420.82 187.288 421.474C187.998 422.129 188.902 422.562 189.879 422.713H190.034C190.237 422.723 190.44 422.723 190.643 422.713H190.809C191.009 422.706 191.209 422.688 191.407 422.661H191.573C191.778 422.629 191.982 422.587 192.182 422.535H192.315C192.562 422.467 192.803 422.38 193.035 422.273C193.285 422.165 193.525 422.039 193.754 421.895L195.636 420.731C195.91 420.563 196.132 420.331 196.282 420.057C196.431 419.782 196.503 419.476 196.489 419.168C196.345 417.154 195.404 413.001 189.425 413.001Z" fill="#37474F"/>
<path d="M195.57 420.71L193.688 421.874C193.459 422.018 193.218 422.144 192.968 422.252C192.737 422.359 192.496 422.447 192.248 422.514H192.116C191.915 422.566 191.712 422.608 191.507 422.64H191.341H191.108H190.743H190.355H189.968H189.846C188.886 422.491 187.996 422.07 187.293 421.434C186.59 420.798 186.106 419.975 185.904 419.074C185.91 419.042 185.91 419.011 185.904 418.979L183.69 409.067C183.445 407.946 182.913 406.898 182.141 406.017C181.369 405.135 180.38 404.447 179.261 404.012L177.468 403.309C176.682 402.974 176.172 403.55 175.851 403.844C175.555 404.092 175.341 404.417 175.235 404.778C175.128 405.139 175.135 405.521 175.253 405.879L177.468 415.098C177.963 417.204 179.28 419.055 181.155 420.28L185.882 423.353C186.652 423.817 187.521 424.115 188.426 424.225C189.331 424.336 190.25 424.257 191.119 423.993H191.141H191.252C191.586 423.882 191.912 423.748 192.226 423.594L194.252 422.545C194.689 422.321 195.067 422.006 195.358 421.625C195.649 421.244 195.847 420.806 195.935 420.343C195.838 420.485 195.714 420.609 195.57 420.71Z" fill="#263238"/>
<path d="M181.487 395.999C181.487 395.999 189.99 396.775 189.957 405.291L195.238 397.477L186.569 388.898L181.487 395.999Z" fill="#FFA8A7"/>
<path d="M200.397 297.405V310.978C200.397 316.383 200.656 321.774 201.172 327.151L202.911 345.317C203.133 347.533 202.84 349.768 202.052 351.865C201.264 353.962 200 355.869 198.349 357.453C195.711 360.014 193.514 362.951 191.839 366.158C186.58 375.965 179.76 393.943 179.76 393.943C179.76 393.943 191.839 393.943 191.839 405.879L219.352 362.372C221.3 359.289 222.524 355.843 222.939 352.271L228.785 302.545L200.397 297.405Z" fill="#455A64"/>
<path d="M260.959 375.661C261.469 376.53 262.267 377.216 263.229 377.612H263.34C265.34 378.452 267.607 378.523 269.662 377.811L287.177 371.78C288.417 371.266 288.439 369.515 288.362 368.791H260.959V375.661Z" fill="#263238"/>
<path d="M262 365.833C262 365.833 259.531 368.267 260.439 372.871C260.587 373.597 260.92 374.278 261.408 374.856C261.896 375.433 262.524 375.89 263.24 376.186L263.351 376.238C265.353 377.074 267.619 377.142 269.673 376.427L287.188 370.396C287.615 370.24 287.966 369.938 288.17 369.55C288.375 369.162 288.42 368.716 288.295 368.298C287.487 365.602 284.63 362.886 278.01 364.533C276.337 365.053 274.612 365.404 272.861 365.582L271.965 364.197L262 365.833Z" fill="#37474F"/>
<path d="M272.861 365.529C271.942 367.858 268.433 368.676 264.38 367.386C263.456 367.087 262.594 366.636 261.834 366.054V356.855H272.906L272.861 365.529Z" fill="#FFA8A7"/>
<path d="M212.93 300.877V302.429C212.916 307.115 214.537 311.674 217.54 315.398C220.544 319.121 224.761 321.8 229.538 323.019L257.748 330.088C258.149 330.188 258.504 330.411 258.756 330.722C259.009 331.034 259.145 331.415 259.143 331.808V363.715C259.143 363.715 272.762 370.197 276.703 360.148V325.683C276.714 322.872 275.83 320.124 274.167 317.796C272.504 315.469 270.139 313.67 267.381 312.635L238.096 301.748L212.93 300.877Z" fill="#455A64"/>
<path d="M225.264 332.322L226.371 321.77C226.371 321.77 217.293 318.886 215.898 314.932C215.433 319.033 221.511 322.788 223.039 323.627C223.603 326.805 225.264 332.322 225.264 332.322Z" fill="#37474F"/>
<path d="M215.211 250.259C215.211 250.259 215.466 245.193 217.304 245.193C218.776 245.193 226.239 247.196 229.117 247.993C229.903 248.196 230.579 248.671 231.01 249.325C232.161 250.908 232.839 252.757 232.97 254.675L215.211 250.259Z" fill="#37474F"/>
<path d="M248.183 267.638C248.183 267.638 256.52 259.604 257.693 260.296C259.132 261.157 257.394 264.251 256.077 265.541L262.62 261.492C262.824 261.365 263.053 261.28 263.293 261.242C263.533 261.203 263.779 261.212 264.015 261.269C264.251 261.325 264.473 261.427 264.665 261.568C264.858 261.71 265.017 261.887 265.133 262.09C266.96 265.237 268.931 272.579 251.449 277.445L248.183 267.638Z" fill="#FFA8A7"/>
<path d="M253.918 278.4C253.918 278.4 249.578 280.288 243.953 282.595C234.52 286.497 221.467 291.647 219.075 291.28C212.803 290.324 206.609 288.95 200.541 287.168L201.748 271.268L219.817 276.302L246.898 266.244L248.005 265.824C255.645 268.488 253.918 278.4 253.918 278.4Z" fill="#263238"/>
<path d="M212.953 247.626L206.21 245.875C205.116 245.594 203.969 245.558 202.858 245.768C201.747 245.978 200.702 246.429 199.806 247.085C198.909 247.741 198.185 248.585 197.691 249.551C197.196 250.516 196.944 251.577 196.954 252.65V254.926C196.948 257.879 197.669 260.792 199.061 263.434C200.453 266.076 202.476 268.374 204.97 270.145L212.82 275.704L212.953 247.626Z" fill="#37474F"/>
<path d="M241.827 291.458L247.109 313.967C247.109 313.967 232.483 320.921 216.639 316.537C200.796 312.152 198.925 308.387 198.925 308.387L200.541 287.189L201.748 271.289L203.165 252.755C203.227 251.853 203.497 250.974 203.955 250.181C204.414 249.388 205.05 248.699 205.819 248.163C206.588 247.628 207.471 247.258 208.407 247.08C209.343 246.902 210.309 246.92 211.236 247.133L233.446 252.378C237.375 253.332 240.855 255.501 243.336 258.541C245.816 261.58 247.156 265.317 247.142 269.159L243.953 282.637L241.827 291.458Z" fill="#263238"/>
<path d="M252.401 318.152C252.401 318.152 261.114 325.641 260.561 326.847C260.007 328.053 256.409 326.763 255.025 325.588L259.597 331.619C259.741 331.808 259.842 332.022 259.895 332.249C259.948 332.475 259.951 332.71 259.905 332.938C259.858 333.166 259.762 333.383 259.624 333.574C259.485 333.766 259.307 333.929 259.099 334.053C255.933 335.972 248.349 338.248 242.359 321.791L252.401 318.152Z" fill="#FFA8A7"/>
<path d="M236.823 253.531C236.823 253.531 228.752 268.215 226.172 291.553C225.762 295.234 241.484 324.204 241.484 324.204C241.484 324.204 251.914 325.326 254.272 317.911L241.827 291.49L247.042 270.156C247.51 268.289 247.472 266.341 246.931 264.492C245.857 260.831 243.178 255.272 236.823 253.531Z" fill="#37474F"/>
<path d="M401.138 68.5957L412.309 74.6791V70.8927C412.309 70.62 412.309 70.3578 412.309 70.0851C412.309 69.8124 412.309 69.5712 412.309 69.3299V69.2355C412.719 64.2219 416.682 62.292 421.532 64.9771C423.74 66.2642 425.629 67.9888 427.068 70.0327C428.175 63.215 433.965 60.7607 440.985 64.6415C448.79 68.9523 455.112 79.4305 455.112 88.0521V96.1703C455.12 96.8051 455.299 97.4274 455.632 97.9782C455.966 98.5289 456.442 98.9897 457.016 99.3169L463.593 103.009C465.024 103.816 466.208 104.961 467.029 106.333C467.85 107.705 468.28 109.256 468.276 110.833C468.284 111.486 468.108 112.129 467.768 112.696C467.428 113.263 466.935 113.735 466.34 114.063C465.745 114.392 465.069 114.565 464.38 114.565C463.691 114.565 463.015 114.392 462.419 114.064L401.337 80.2905C399.709 79.3844 398.36 78.0906 397.424 76.5376C396.488 74.9846 395.997 73.2265 396 71.4381C396.003 70.8691 396.163 70.3106 396.463 69.8177C396.763 69.3249 397.194 68.9147 397.713 68.6277C398.231 68.3408 398.82 68.1868 399.421 68.1812C400.021 68.1756 400.613 68.3185 401.138 68.5957Z" fill="#E6E6E6"/>
<path d="M393.166 19.2571L400.396 23.1904V20.7465C400.396 20.5682 400.396 20.4004 400.396 20.2326C400.396 20.0647 400.396 19.8969 400.396 19.7291C400.662 16.4881 403.219 15.2505 406.352 16.9811C407.758 17.7946 408.966 18.8814 409.895 20.1696C410.604 15.7644 414.324 14.1806 418.886 16.6874C423.923 19.4669 428.009 26.2425 428.009 31.812V37.0563C428.001 37.4774 428.111 37.8928 428.327 38.261C428.543 38.6292 428.857 38.9371 429.238 39.1541L433.489 41.535C434.412 42.057 435.177 42.7976 435.706 43.6839C436.236 44.5702 436.514 45.5719 436.512 46.5905C436.517 47.0126 436.404 47.4283 436.184 47.7956C435.965 48.1629 435.646 48.4686 435.262 48.6816C434.877 48.8947 434.44 49.0076 433.994 49.0087C433.549 49.0099 433.111 48.8993 432.725 48.6882L393.277 26.8719C392.228 26.2873 391.359 25.4533 390.755 24.4525C390.151 23.4517 389.833 22.3188 389.833 21.166C389.815 20.7885 389.904 20.4132 390.091 20.0796C390.279 19.7461 390.558 19.4668 390.9 19.2712C391.241 19.0757 391.632 18.9711 392.031 18.9686C392.43 18.9662 392.822 19.0658 393.166 19.2571Z" fill="#E6E6E6"/>
</svg>
