<svg width="524" height="396" viewBox="0 0 524 396" fill="none" xmlns="http://www.w3.org/2000/svg">
<path d="M76.5946 356.218C178.718 409.261 344.295 409.261 446.419 356.218C548.542 303.174 548.542 217.293 446.419 164.299C344.295 111.305 178.718 111.256 76.5946 164.299C-25.5286 217.343 -25.5286 303.211 76.5946 356.218Z" fill="#F5F5F5"/>
<path d="M133.008 112.428L157.62 98.3161L133.008 84.2041L108.173 98.3161L133.008 112.428Z" stroke="#EBEBEB" stroke-width="0.419581" stroke-linecap="round" stroke-linejoin="round"/>
<path d="M113.897 98.3284L133.02 43.4224V109.295L113.897 98.3284Z" fill="#E0E0E0"/>
<path d="M133.021 109.295L152.131 98.3284L133.021 43.4224V109.295Z" fill="#E6E6E6"/>
<path d="M102.932 129.648L127.544 115.536L102.932 101.424L78.097 115.536L102.932 129.648Z" stroke="#EBEBEB" stroke-width="0.419581" stroke-linecap="round" stroke-linejoin="round"/>
<path d="M83.8215 115.549L102.932 34.0103V126.515L83.8215 115.549Z" fill="#E0E0E0"/>
<path d="M102.932 126.515L122.043 115.549L102.932 34.0103V126.515Z" fill="#E6E6E6"/>
<path d="M72.8567 146.869L97.4686 132.757L72.8567 118.645L48.0089 132.757L72.8567 146.869Z" stroke="#EBEBEB" stroke-width="0.419581" stroke-linecap="round" stroke-linejoin="round"/>
<path d="M53.7458 132.77L72.8567 84.2041V143.736L53.7458 132.77Z" fill="#E0E0E0"/>
<path d="M72.8567 143.736L91.9675 132.77L72.8567 84.2041V143.736Z" fill="#E6E6E6"/>
<path d="M42.7811 164.09L67.3929 149.978L42.7811 135.866L17.9332 149.978L42.7811 164.09Z" stroke="#EBEBEB" stroke-width="0.419581" stroke-linecap="round" stroke-linejoin="round"/>
<path d="M23.6578 149.99L42.7811 67.5386V160.956L23.6578 149.99Z" fill="#E0E0E0"/>
<path d="M42.781 160.956L61.8919 149.99L42.781 67.5386V160.956Z" fill="#E6E6E6"/>
<path d="M370.795 93.6655L502.05 168.938" stroke="#EBEBEB" stroke-width="0.419581" stroke-miterlimit="10" stroke-linecap="round"/>
<path d="M502.05 160.957C501.891 151.508 501.224 142.074 500.051 132.696C498.809 122.506 496.325 105.31 486.453 99.636C476.581 93.9616 472.856 104.225 471.428 109.27C469.565 115.82 459.892 111.676 458.551 100.882C457.21 90.0883 456.328 55.6965 444.73 49.0722C433.132 42.448 429.394 58.4226 428.078 62.8881C425.482 71.6588 417.87 69.241 415.387 63.4309C412.903 57.6208 406.123 56.2022 403.565 64.3807C401.007 72.5593 399.43 81.9467 391.147 77.1235C383.871 72.8923 387.211 65.1826 380.12 61.5189C374.508 58.6323 371.9 72.3989 371.9 86.3259L502.05 160.957Z" fill="#E0E0E0"/>
<path d="M492.513 89.1754C492.513 90.6803 491.147 91.1121 489.483 90.1622L479.549 84.4385C478.732 83.9787 478.034 83.3374 477.508 82.5649C476.983 81.7923 476.644 80.9095 476.519 79.9853C476.519 78.4927 477.885 78.0486 479.549 79.0108L489.483 84.7345C490.299 85.1917 490.998 85.8306 491.524 86.6011C492.049 87.3717 492.388 88.2529 492.513 89.1754Z" fill="#E6E6E6"/>
<path d="M451.733 40.7826C451.733 42.2875 450.38 42.7193 448.703 41.7694L438.769 36.0457C437.951 35.5881 437.251 34.9474 436.725 34.1745C436.199 33.4015 435.862 32.5175 435.739 31.5925C435.739 30.0999 437.093 29.6558 438.769 30.618L448.703 36.3417C449.521 36.7973 450.22 37.4359 450.746 38.2067C451.272 38.9775 451.61 39.8595 451.733 40.7826Z" fill="#E6E6E6"/>
<path d="M419.435 49.6888C419.435 51.1938 418.081 51.6255 416.417 50.6757L406.483 44.9519C405.665 44.4943 404.965 43.8537 404.439 43.0807C403.913 42.3078 403.576 41.4238 403.453 40.4987C403.453 39.0061 404.807 38.5621 406.483 39.5242L416.417 45.248C417.232 45.7058 417.929 46.3451 418.452 47.1157C418.976 47.8863 419.312 48.7671 419.435 49.6888Z" fill="#E6E6E6"/>
<path d="M388.813 52.6371C388.813 54.142 387.459 54.5738 385.783 53.6116L375.849 47.9002C375.034 47.4397 374.337 46.798 373.814 46.0254C373.29 45.2528 372.954 44.3703 372.831 43.447C372.831 41.9544 374.185 41.5103 375.849 42.4725L385.783 48.1839C386.6 48.643 387.299 49.284 387.825 50.0567C388.35 50.8294 388.689 51.7126 388.813 52.6371Z" fill="#E6E6E6"/>
<path d="M365.331 82.551V1" stroke="#EBEBEB" stroke-width="0.419581" stroke-miterlimit="10" stroke-linecap="round"/>
<path d="M47.177 262.936C47.177 262.936 49.2135 244.827 43.5634 227.582C38.2487 211.274 27.5694 202.627 21.0998 200.036C8.86838 195.188 7.77562 208.572 16.9399 217.836C23.6579 224.646 39.8257 238.684 42.6073 262.491L47.177 262.936Z" fill="#BA68C8"/>
<path opacity="0.7" d="M47.177 262.936C47.177 262.936 49.2135 244.827 43.5634 227.582C38.2487 211.274 27.5694 202.627 21.0998 200.036C8.86838 195.188 7.77562 208.572 16.9399 217.836C23.6579 224.646 39.8257 238.684 42.6073 262.491L47.177 262.936Z" fill="white"/>
<path d="M17.7968 203.774C25.1853 208.708 45.0412 222.956 45.7614 262.8" stroke="#FAFAFA" stroke-width="0.419581" stroke-miterlimit="10" stroke-linecap="round"/>
<path d="M41.974 275.308C38.1741 257.051 30.4131 250.427 16.5425 243.371C10.6068 240.361 3.65292 237.006 1.14455 233.169C-1.36383 229.333 -0.0972223 224.177 8.44616 224.288C24.0552 224.497 41.8374 243.186 44.2091 263.663L41.974 275.308Z" fill="#BA68C8"/>
<path opacity="0.8" d="M41.974 275.308C38.1741 257.051 30.4131 250.427 16.5425 243.371C10.6068 240.361 3.65292 237.006 1.14455 233.169C-1.36383 229.333 -0.0972223 224.177 8.44616 224.288C24.0552 224.497 41.8374 243.186 44.2091 263.663L41.974 275.308Z" fill="white"/>
<path d="M7.12988 228.26C18.9143 229.851 37.5284 243.494 43.4392 267.734" stroke="#FAFAFA" stroke-width="0.419581" stroke-miterlimit="10" stroke-linecap="round"/>
<path d="M477.326 254.387C482.107 245.258 485.82 219.65 479.673 207.807C473.527 195.965 464.387 196.915 462.971 200.751C461.73 204.292 464.797 210.62 468.771 218.157C472.744 225.694 476.097 241.841 472.334 249.366L477.326 254.387Z" fill="#BA68C8"/>
<path opacity="0.7" d="M477.326 254.387C482.107 245.258 485.82 219.65 479.673 207.807C473.527 195.965 464.387 196.915 462.971 200.751C461.73 204.292 464.797 210.62 468.771 218.157C472.744 225.694 476.097 241.841 472.334 249.366L477.326 254.387Z" fill="white"/>
<path d="M469.006 201.368C472.918 204.489 484.119 223.572 476.283 249.761" stroke="#FAFAFA" stroke-width="0.419581" stroke-miterlimit="10" stroke-linecap="round"/>
<path d="M475.811 264.058C472.93 258.334 466.622 248.86 470.919 242.359C475.215 235.859 479.711 241.607 483.163 237.364C486.615 233.12 482.666 226.261 485.646 222.561C491.408 215.283 495.58 223.733 500.1 222.622C503.366 221.821 507.005 214.629 516.405 215.505C525.805 216.381 525.333 223.782 521.148 227.261C516.964 230.739 511.997 234.206 515.225 239.424C518.081 244.049 519.559 252.598 509.786 255.916C500.448 259.087 505.067 263.108 503.577 267.648C502.087 272.187 493.271 276.492 483.895 272.989L475.811 264.058Z" fill="#BA68C8"/>
<path opacity="0.8" d="M475.811 264.058C472.93 258.334 466.622 248.86 470.919 242.359C475.215 235.859 479.711 241.607 483.163 237.364C486.615 233.12 482.666 226.261 485.646 222.561C491.408 215.283 495.58 223.733 500.1 222.622C503.366 221.821 507.005 214.629 516.405 215.505C525.805 216.381 525.333 223.782 521.148 227.261C516.964 230.739 511.997 234.206 515.225 239.424C518.081 244.049 519.559 252.598 509.786 255.916C500.448 259.087 505.067 263.108 503.577 267.648C502.087 272.187 493.271 276.492 483.895 272.989L475.811 264.058Z" fill="white"/>
<path d="M517.696 219.699C507.514 222.413 483.125 242.1 481.064 266.809" stroke="#FAFAFA" stroke-width="0.419581" stroke-miterlimit="10" stroke-linecap="round"/>
<path d="M510.357 245.641C505.328 244.506 492.55 244.346 487.77 246.652" stroke="#FAFAFA" stroke-width="0.419581" stroke-miterlimit="10" stroke-linecap="round"/>
<path d="M490.613 224.732C490.613 224.732 494.339 231.899 493.805 237.931" stroke="#FAFAFA" stroke-width="0.419581" stroke-miterlimit="10" stroke-linecap="round"/>
<path d="M351.709 154.727C350.044 149.002 347.069 143.737 343.016 139.344C338.226 134.155 332.624 129.769 326.426 126.355C319.23 122.305 311.577 119.113 303.627 116.844C294.87 114.333 285.887 112.681 276.805 111.91C267.424 111.059 257.985 111.059 248.605 111.91C239.527 112.681 230.548 114.333 221.795 116.844C213.84 119.111 206.183 122.303 198.983 126.355C192.785 129.799 187.187 134.214 182.406 139.431C178.357 143.826 175.382 149.09 173.713 154.813C172.23 160.107 172.23 165.704 173.713 170.998C175.369 176.723 178.345 181.985 182.406 186.368C187.191 191.589 192.793 196.009 198.996 199.456C206.187 203.505 213.836 206.693 221.782 208.954C230.539 211.476 239.522 213.146 248.605 213.938C257.986 214.777 267.424 214.777 276.805 213.938C285.892 213.142 294.879 211.469 303.64 208.942C311.586 206.681 319.235 203.492 326.426 199.444C332.631 196 338.234 191.58 343.016 186.356C347.072 181.969 350.047 176.708 351.709 170.985C353.194 165.666 353.194 160.046 351.709 154.727Z" fill="#37474F"/>
<path d="M172.596 154.752H352.814V163.88L172.596 163.374V154.752Z" fill="#37474F"/>
<path d="M248.605 103.731L262.686 154.727L221.795 108.715C230.546 106.187 239.525 104.518 248.605 103.731Z" fill="#455A64"/>
<path d="M276.805 103.731L262.724 154.727L248.642 103.707C258.011 102.866 267.438 102.874 276.805 103.731Z" fill="#455A64"/>
<path d="M303.627 108.715L262.724 154.727L276.805 103.707C285.889 104.502 294.873 106.179 303.627 108.715Z" fill="#455A64"/>
<path d="M343.004 131.289C347.054 135.689 350.029 140.957 351.696 146.684L262.736 154.727L343.004 131.289Z" fill="#455A64"/>
<path d="M351.709 146.697C353.18 151.988 353.18 157.577 351.709 162.869L262.736 154.727L351.709 146.697Z" fill="#455A64"/>
<path d="M351.709 162.869C350.045 168.594 347.069 173.858 343.016 178.251L262.736 154.813L351.709 162.869Z" fill="#455A64"/>
<path d="M343.016 178.251C338.233 183.471 332.631 187.886 326.426 191.327L262.711 154.727L343.016 178.251Z" fill="#455A64"/>
<path d="M262.723 154.789L303.64 200.838C294.879 203.35 285.891 205.002 276.805 205.772L262.711 154.752L262.723 154.789Z" fill="#455A64"/>
<path d="M262.711 154.801L276.805 205.821C267.424 206.673 257.985 206.673 248.604 205.821L262.711 154.801Z" fill="#455A64"/>
<path d="M262.686 154.789L248.58 205.809C239.494 205.039 230.506 203.387 221.745 200.875L262.686 154.789Z" fill="#455A64"/>
<path d="M262.686 154.789L221.708 200.838C213.763 198.567 206.115 195.375 198.921 191.327L262.686 154.789Z" fill="#455A64"/>
<path d="M262.674 154.727L182.393 178.165C178.335 173.776 175.359 168.51 173.701 162.782L262.674 154.727Z" fill="#455A64"/>
<path d="M262.674 154.727L173.713 162.869C172.229 157.579 172.229 151.986 173.713 146.697L262.674 154.727Z" fill="#455A64"/>
<path d="M262.674 154.727L173.713 146.647C175.384 140.921 178.359 135.654 182.406 131.252L262.674 154.727Z" fill="#455A64"/>
<path d="M198.983 118.238L262.674 154.727L182.406 131.289C187.189 126.081 192.787 121.674 198.983 118.238Z" fill="#455A64"/>
<path d="M326.426 118.238L262.724 154.727L303.627 108.69C311.581 110.966 319.234 114.171 326.426 118.238Z" fill="#455A64"/>
<path d="M326.426 118.238C332.625 121.671 338.223 126.079 343.004 131.289L262.736 154.727L326.426 118.238Z" fill="#455A64"/>
<path d="M262.686 154.727L198.959 191.277C192.756 187.834 187.154 183.419 182.369 178.202L262.649 154.764L262.686 154.727Z" fill="#455A64"/>
<path d="M221.795 108.715L262.686 154.727L198.983 118.189C206.183 114.145 213.84 110.965 221.795 108.715Z" fill="#455A64"/>
<path d="M262.724 154.789L326.426 191.327C319.233 195.375 311.585 198.567 303.64 200.838L262.724 154.789Z" fill="#455A64"/>
<path d="M208.21 103.263L258.812 132.276L256.328 91.26C237.714 92.0495 221.906 95.9969 208.21 103.263Z" fill="#BA68C8"/>
<path opacity="0.2" d="M208.21 103.263L258.812 132.276L256.328 91.26C237.714 92.0495 221.906 95.9969 208.21 103.263Z" fill="white"/>
<path d="M258.812 132.276V148.115L208.21 119.089V103.263L258.812 132.276Z" fill="#BA68C8"/>
<path opacity="0.1" d="M258.812 132.276V148.115L208.21 119.089V103.263L258.812 132.276Z" fill="black"/>
<path d="M324.415 107.333L266.337 133.361V149.188L324.415 123.16V107.333Z" fill="#BA68C8"/>
<path opacity="0.3" d="M324.415 107.333L266.337 133.361V149.188L324.415 123.16V107.333Z" fill="black"/>
<path d="M324.415 107.333C308.781 96.7618 287.931 91.1861 263.767 91.1121L265.319 116.758L266.337 133.362L324.415 107.333Z" fill="#BA68C8"/>
<path opacity="0.1" d="M324.415 107.333C308.781 96.7618 287.931 91.1861 263.767 91.1121L265.319 116.758L266.337 133.362L324.415 107.333Z" fill="black"/>
<path d="M263.754 91.1121V106.939L266.337 149.188V133.362L263.754 91.1121Z" fill="#263238"/>
<path d="M278.146 163.843L307.837 192.215C309.501 191.586 311.041 190.982 312.804 190.143C333.256 180.99 343.948 167.272 343.935 153.432V137.766C341.688 131.807 335.504 131.82 329.034 126.577L268.398 153.716L267.79 153.987L278.146 163.843Z" fill="#BA68C8"/>
<path opacity="0.6" d="M278.146 163.843L307.837 192.215C309.501 191.586 311.041 190.982 312.804 190.143C333.256 180.99 343.948 167.272 343.935 153.432V137.766C341.688 131.807 335.504 131.82 329.034 126.577L268.398 153.716L267.79 153.987L278.146 163.843Z" fill="white"/>
<path d="M278.146 148.017L307.837 176.389C309.501 175.759 311.041 175.155 312.804 174.304C347.04 158.946 353.894 130.821 329.059 110.701L268.423 137.84L267.815 138.111L278.146 148.017Z" fill="#BA68C8"/>
<path opacity="0.8" d="M278.146 148.017L307.837 176.389C309.501 175.759 311.041 175.155 312.804 174.304C347.04 158.946 353.894 130.821 329.059 110.701L268.423 137.84L267.815 138.111L278.146 148.017Z" fill="white"/>
<path d="M307.787 192.19V176.351L267.753 138.148V153.975L307.787 192.19Z" fill="#BA68C8"/>
<path opacity="0.6" d="M307.787 192.19V176.351L267.753 138.148V153.975L307.787 192.19Z" fill="white"/>
<path d="M202.945 122.112C194.414 127.453 184.939 130.821 181.487 137.309V153.148C181.487 161.401 185.349 169.764 193.358 177.412C204.534 188.058 222.229 195.583 243.252 198.58C262.708 201.433 282.558 199.997 301.392 194.374V178.547L275.253 169.419L259.905 154.727L202.945 122.112Z" fill="#BA68C8"/>
<path opacity="0.6" d="M202.945 122.112C194.414 127.453 184.939 130.821 181.487 137.309V153.148C181.487 161.401 185.349 169.764 193.358 177.412C204.534 188.058 222.229 195.583 243.252 198.58C262.708 201.433 282.558 199.997 301.392 194.374V178.547L275.253 169.419L259.905 154.727L202.945 122.112Z" fill="black"/>
<path d="M202.945 106.285C178.432 121.606 174.483 143.563 193.358 161.573C204.534 172.231 222.229 179.744 243.253 182.754C262.709 185.6 282.557 184.164 301.392 178.547L275.253 153.592L259.905 138.95L202.945 106.285Z" fill="#BA68C8"/>
<path opacity="0.3" d="M202.945 106.285C178.432 121.606 174.483 143.563 193.358 161.573C204.534 172.231 222.229 179.744 243.253 182.754C262.709 185.6 282.557 184.164 301.392 178.547L275.253 153.592L259.905 138.95L202.945 106.285Z" fill="black"/>
<path d="M487.372 278.885C485.708 273.16 482.733 267.896 478.68 263.503C473.9 258.284 468.302 253.868 462.102 250.427C454.905 246.377 447.253 243.185 439.303 240.916C430.546 238.405 421.562 236.753 412.481 235.982C403.1 235.131 393.661 235.131 384.28 235.982C375.203 236.754 366.224 238.406 357.471 240.916C349.521 243.185 341.868 246.377 334.672 250.427C328.467 253.867 322.865 258.283 318.082 263.503C314.032 267.898 311.058 273.162 309.389 278.885C307.906 284.179 307.906 289.776 309.389 295.07C311.045 300.795 314.021 306.057 318.082 310.44C322.867 315.661 328.469 320.081 334.672 323.528C341.865 327.572 349.513 330.76 357.458 333.027C366.221 335.531 375.208 337.184 384.293 337.961C393.674 338.8 403.112 338.8 412.493 337.961C421.578 337.185 430.566 335.533 439.328 333.027C447.277 330.766 454.926 327.573 462.115 323.516C468.323 320.076 473.93 315.661 478.717 310.44C482.769 306.051 485.744 300.79 487.409 295.07C488.875 289.771 488.862 284.177 487.372 278.885Z" fill="#37474F"/>
<path d="M308.259 278.873H488.477V288.002L308.259 287.496V278.873Z" fill="#37474F"/>
<path d="M384.268 227.853L398.362 278.873L357.458 232.836C366.21 230.31 375.189 228.641 384.268 227.853Z" fill="#455A64"/>
<path d="M412.469 227.853L398.387 278.873L384.293 227.853C393.665 227.003 403.096 227.003 412.469 227.853Z" fill="#455A64"/>
<path d="M439.291 232.836L398.387 278.873L412.469 227.853C421.552 228.64 430.535 230.309 439.291 232.836Z" fill="#455A64"/>
<path d="M478.667 255.423C482.72 259.82 485.695 265.089 487.36 270.818L398.399 278.898L478.667 255.423Z" fill="#455A64"/>
<path d="M487.372 270.818C488.85 276.109 488.85 281.699 487.372 286.99L398.412 278.898L487.372 270.818Z" fill="#455A64"/>
<path d="M487.372 286.99C485.704 292.713 482.73 297.977 478.68 302.373L398.399 278.935L487.372 286.99Z" fill="#455A64"/>
<path d="M478.692 302.372C473.899 307.586 468.293 312.001 462.09 315.448L398.375 278.898L478.692 302.372Z" fill="#455A64"/>
<path d="M398.387 278.91L439.303 324.959C430.541 327.465 421.554 329.118 412.469 329.894L398.375 278.873L398.387 278.91Z" fill="#455A64"/>
<path d="M398.374 278.922L412.469 329.893C403.088 330.738 393.649 330.738 384.268 329.893L398.374 278.922Z" fill="#455A64"/>
<path d="M398.362 278.91L384.268 329.893C375.183 329.117 366.196 327.464 357.433 324.959L398.362 278.91Z" fill="#455A64"/>
<path d="M398.362 278.91L357.384 324.959C349.44 322.684 341.793 319.492 334.597 315.448L398.362 278.91Z" fill="#455A64"/>
<path d="M398.337 278.898L318.057 302.335C313.998 297.947 311.022 292.68 309.364 286.953L398.337 278.898Z" fill="#455A64"/>
<path d="M398.337 278.898L309.377 286.99C307.893 281.7 307.893 276.108 309.377 270.818L398.337 278.898Z" fill="#455A64"/>
<path d="M398.337 278.885L309.377 270.806C311.045 265.079 314.019 259.811 318.069 255.411L398.337 278.885Z" fill="#455A64"/>
<path d="M334.659 242.31L398.337 278.836L318.069 255.398C322.851 250.174 328.454 245.754 334.659 242.31Z" fill="#455A64"/>
<path d="M462.09 242.31L398.387 278.836L439.291 232.799C447.242 235.063 454.895 238.255 462.09 242.31Z" fill="#455A64"/>
<path d="M462.09 242.31C468.289 245.747 473.888 250.159 478.667 255.374L398.412 278.812L462.09 242.31Z" fill="#455A64"/>
<path d="M398.362 278.885L334.647 315.448C328.447 312.001 322.846 307.586 318.057 302.372L398.337 278.935L398.362 278.885Z" fill="#455A64"/>
<path d="M357.458 232.836L398.362 278.873L334.659 242.31C341.855 238.268 349.508 235.088 357.458 232.836Z" fill="#455A64"/>
<path d="M398.387 278.91L462.09 315.448C454.896 319.496 447.248 322.688 439.303 324.959L398.387 278.91Z" fill="#455A64"/>
<path d="M318.988 258.852V284.486C318.334 282.144 318 279.725 317.995 277.294V258.852H318.988Z" fill="#BA68C8"/>
<path opacity="0.3" d="M318.988 258.852V284.486C318.334 282.144 318 279.725 317.995 277.294V258.852H318.988Z" fill="black"/>
<path d="M398.337 258.877L318.988 266.081C317.672 261.363 317.672 256.378 318.988 251.661L398.337 258.877Z" fill="#BA68C8"/>
<path d="M398.337 258.852L318.988 251.636C320.479 246.528 323.135 241.83 326.749 237.906L398.337 258.852Z" fill="#BA68C8"/>
<path d="M341.539 226.274L398.337 258.852L326.749 237.882C331.019 233.249 336.013 229.329 341.539 226.274Z" fill="#BA68C8"/>
<path d="M361.879 217.787L398.362 258.84L341.539 226.274C347.957 222.657 354.785 219.808 361.879 217.787Z" fill="#BA68C8"/>
<path d="M385.795 213.346L398.362 258.84L361.879 217.787C369.685 215.531 377.696 214.044 385.795 213.346Z" fill="#BA68C8"/>
<path d="M411.016 213.346L398.387 258.84L385.82 213.346C394.201 212.579 402.635 212.579 411.016 213.346Z" fill="#BA68C8"/>
<path d="M434.87 217.787L398.387 258.84L411.016 213.346C419.094 214.048 427.084 215.535 434.87 217.787Z" fill="#BA68C8"/>
<g opacity="0.2">
<path d="M398.337 258.877L318.988 266.081C317.671 261.363 317.671 256.378 318.988 251.661L398.337 258.877Z" fill="white"/>
<path d="M398.337 258.852L318.988 251.636C320.479 246.528 323.135 241.83 326.749 237.906L398.337 258.852Z" fill="white"/>
<path d="M341.539 226.274L398.337 258.853L326.749 237.882C331.019 233.249 336.013 229.329 341.539 226.274Z" fill="white"/>
<path d="M361.879 217.787L398.362 258.84L341.539 226.274C347.957 222.657 354.785 219.808 361.879 217.787Z" fill="white"/>
<path d="M385.795 213.346L398.362 258.84L361.879 217.787C369.685 215.531 377.696 214.044 385.795 213.346Z" fill="white"/>
<path d="M411.016 213.346L398.387 258.84L385.82 213.346C394.201 212.579 402.635 212.579 411.016 213.346Z" fill="white"/>
<path d="M434.87 217.787L398.387 258.84L411.016 213.346C419.094 214.048 427.084 215.535 434.87 217.787Z" fill="white"/>
</g>
<path d="M465.654 271.163L453.745 282.265L444.693 290.765L436.062 298.832L434.907 299.905V318.323C442 316.303 448.827 313.459 455.248 309.848C460.779 306.767 465.777 302.822 470.049 298.166C473.662 294.255 476.311 289.563 477.786 284.461C478.444 282.12 478.782 279.701 478.792 277.27V258.865L465.654 271.163Z" fill="#BA68C8"/>
<path opacity="0.3" d="M465.654 271.163L453.745 282.265L444.693 290.765L436.062 298.832L434.907 299.905V318.323C442 316.303 448.827 313.459 455.248 309.848C460.779 306.767 465.777 302.822 470.049 298.166C473.662 294.255 476.311 289.563 477.786 284.461C478.444 282.12 478.782 279.701 478.792 277.27V258.865L465.654 271.163Z" fill="black"/>
<path d="M470 237.931C473.609 241.858 476.264 246.555 477.761 251.661L398.399 258.877L470 237.931Z" fill="#BA68C8"/>
<path d="M478.754 258.889C478.744 261.324 478.406 263.747 477.748 266.093L453.708 263.898L398.399 258.865L465.616 252.697L477.748 251.599C478.413 253.973 478.751 256.425 478.754 258.889Z" fill="#BA68C8"/>
<path d="M477.748 266.093C476.27 271.194 473.622 275.885 470.012 279.798L444.655 272.397L398.399 258.828L453.708 263.861L477.748 266.093Z" fill="#BA68C8"/>
<path d="M470.012 279.798C465.74 284.454 460.742 288.398 455.21 291.48L436.025 280.452L398.412 258.889L444.668 272.458L470.012 279.798Z" fill="#BA68C8"/>
<path d="M455.21 226.274L398.387 258.865L434.87 217.812C441.961 219.829 448.788 222.67 455.21 226.274Z" fill="#BA68C8"/>
<path d="M455.21 226.274C460.737 229.347 465.731 233.283 470 237.931L398.399 258.902L455.21 226.274Z" fill="#BA68C8"/>
<path d="M455.21 291.48C448.789 295.087 441.962 297.927 434.87 299.942L398.412 258.889L436.025 280.452L455.21 291.48Z" fill="#BA68C8"/>
<g opacity="0.2">
<path d="M470 237.931C473.609 241.858 476.264 246.555 477.761 251.66L398.399 258.877L470 237.931Z" fill="white"/>
<path d="M478.754 258.889C478.744 261.324 478.406 263.747 477.748 266.093L453.708 263.898L398.399 258.865L465.616 252.697L477.748 251.599C478.413 253.973 478.751 256.425 478.754 258.889Z" fill="white"/>
<path d="M477.748 266.093C476.27 271.194 473.622 275.885 470.012 279.798L444.655 272.397L398.399 258.828L453.708 263.861L477.748 266.093Z" fill="white"/>
<path d="M470.012 279.798C465.74 284.454 460.742 288.398 455.21 291.48L436.025 280.452L398.412 258.889L444.668 272.458L470.012 279.798Z" fill="white"/>
<path d="M455.21 226.274L398.387 258.865L434.87 217.812C441.961 219.829 448.788 222.67 455.21 226.274Z" fill="white"/>
<path d="M455.21 226.274C460.737 229.347 465.731 233.283 470 237.931L398.399 258.902L455.21 226.274Z" fill="white"/>
<path d="M455.21 291.48C448.789 295.087 441.962 297.927 434.87 299.942L398.412 258.889L436.025 280.452L455.21 291.48Z" fill="white"/>
</g>
<path d="M434.883 299.955V318.372L398.362 277.269V258.84L434.883 299.955Z" fill="#263238"/>
<path d="M398.362 277.269L318.988 284.51V266.081L398.362 258.84V277.269Z" fill="#BA68C8"/>
<path opacity="0.1" d="M398.362 277.269L318.988 284.51V266.081L398.362 258.84V277.269Z" fill="black"/>
<path d="M216.058 278.885C214.393 273.16 211.418 267.896 207.365 263.503C202.584 258.286 196.986 253.871 190.788 250.427C183.588 246.375 175.931 243.183 167.976 240.916C159.224 238.405 150.244 236.753 141.167 235.982C131.786 235.131 122.347 235.131 112.966 235.982C103.885 236.754 94.9011 238.406 86.1438 240.916C78.1856 243.183 70.5246 246.375 63.32 250.427C57.1201 253.868 51.5219 258.284 46.7424 263.503C42.6896 267.896 39.7146 273.16 38.05 278.885C36.5782 284.181 36.5782 289.774 38.05 295.07C39.7117 300.792 42.6872 306.053 46.7424 310.44C51.5209 315.663 57.1192 320.083 63.32 323.528C70.5114 327.577 78.1602 330.765 86.1065 333.027C94.869 335.533 103.856 337.185 112.941 337.961C122.322 338.8 131.761 338.8 141.142 337.961C150.227 337.185 159.214 335.533 167.976 333.027C175.925 330.766 183.575 327.573 190.763 323.516C196.973 320.078 202.579 315.662 207.365 310.44C211.421 306.053 214.396 300.792 216.058 295.07C217.53 289.774 217.53 284.181 216.058 278.885Z" fill="#37474F"/>
<path d="M36.9324 278.873H217.151V288.001L36.9324 287.496V278.873Z" fill="#37474F"/>
<path d="M112.991 227.853L127.072 278.873L86.1686 232.836C94.9242 230.31 103.908 228.641 112.991 227.853Z" fill="#455A64"/>
<path d="M141.142 227.853L127.06 278.873L112.991 227.853C122.355 227.005 131.777 227.005 141.142 227.853Z" fill="#455A64"/>
<path d="M167.952 232.836L127.06 278.873L141.142 227.853C150.221 228.64 159.2 230.309 167.952 232.836Z" fill="#455A64"/>
<path d="M207.365 255.423C211.418 259.82 214.393 265.089 216.058 270.818L127.085 278.898L207.365 255.423Z" fill="#455A64"/>
<path d="M216.058 270.818C217.529 276.109 217.529 281.698 216.058 286.99L127.085 278.898L216.058 270.818Z" fill="#455A64"/>
<path d="M216.058 286.99C214.394 292.715 211.419 297.98 207.365 302.373L127.085 278.935L216.058 286.99Z" fill="#455A64"/>
<path d="M207.365 302.372C202.576 307.586 196.975 312.001 190.775 315.448L127.048 278.898L207.365 302.372Z" fill="#455A64"/>
<path d="M127.06 278.91L167.976 324.959C159.214 327.465 150.227 329.118 141.142 329.894L127.035 278.873L127.06 278.91Z" fill="#455A64"/>
<path d="M127.035 278.922L141.142 329.893C131.777 330.735 122.355 330.735 112.991 329.893L127.035 278.922Z" fill="#455A64"/>
<path d="M127.023 278.91L112.991 329.893C103.906 329.118 94.9186 327.465 86.1561 324.959L127.023 278.91Z" fill="#455A64"/>
<path d="M127.023 278.91L86.0443 324.959C78.1209 322.684 70.4938 319.491 63.3199 315.448L127.023 278.91Z" fill="#455A64"/>
<path d="M127.01 278.898L46.73 302.335C42.6768 297.943 39.7017 292.678 38.0376 286.953L127.01 278.898Z" fill="#455A64"/>
<path d="M127.01 278.898L38.0376 286.99C36.5662 281.698 36.5662 276.109 38.0376 270.818L127.01 278.898Z" fill="#455A64"/>
<path d="M127.01 278.885L38.0376 270.806C39.7021 265.077 42.677 259.808 46.73 255.411L127.01 278.885Z" fill="#455A64"/>
<path d="M63.3199 242.31L127.01 278.836L46.7423 255.398C51.5199 250.174 57.1184 245.754 63.3199 242.31Z" fill="#455A64"/>
<path d="M190.763 242.31L127.06 278.836L167.952 232.799C175.908 235.061 183.565 238.253 190.763 242.31Z" fill="#455A64"/>
<path d="M190.763 242.31C196.973 245.763 202.579 250.191 207.365 255.423L127.097 278.861L190.763 242.31Z" fill="#455A64"/>
<path d="M127.023 278.885L63.32 315.448C57.1182 312.004 51.5162 307.589 46.73 302.372L127.01 278.935L127.023 278.885Z" fill="#455A64"/>
<path d="M86.1189 232.836L127.023 278.873L63.3199 242.31C70.516 238.268 78.169 235.088 86.1189 232.836Z" fill="#455A64"/>
<path d="M127.06 278.91L190.763 315.448C183.569 319.496 175.921 322.688 167.976 324.959L127.06 278.91Z" fill="#455A64"/>
<path d="M151.001 247.244L161.271 235.673C161.271 222.104 144.581 221.771 137.205 221.117C129.829 220.464 117.176 216.257 117.176 231.701L120.702 244.481C130.885 243.831 141.108 244.763 151.001 247.244Z" fill="#BA68C8"/>
<path opacity="0.6" d="M151.001 247.244L161.271 235.673C161.271 222.104 144.581 221.771 137.205 221.117C129.829 220.464 117.176 216.257 117.176 231.701L120.702 244.481C130.885 243.831 141.108 244.763 151.001 247.244Z" fill="white"/>
<path d="M151.001 229.074L161.271 217.516C146.891 213.798 131.994 212.456 117.176 213.543L120.702 226.274C130.887 225.636 141.11 226.581 151.001 229.074Z" fill="#BA68C8"/>
<path opacity="0.8" d="M151.001 229.074L161.271 217.516C146.891 213.798 131.994 212.456 117.176 213.543L120.702 226.274C130.887 225.636 141.11 226.581 151.001 229.074Z" fill="white"/>
<path d="M120.702 226.323V244.506L117.176 231.726V213.543L120.702 226.323Z" fill="#BA68C8"/>
<path d="M161.271 217.515L151.001 229.074V247.269L161.271 235.698V217.515Z" fill="#BA68C8"/>
<g opacity="0.6">
<path d="M120.702 226.323V244.506L117.176 231.726V213.543L120.702 226.323Z" fill="white"/>
<path d="M161.271 217.515L151.001 229.074V247.269L161.271 235.698V217.515Z" fill="white"/>
</g>
<path d="M156.018 230.542V248.725C160.303 250.099 164.438 251.896 168.361 254.091C171.785 256.022 174.93 258.404 177.712 261.171L197.853 255.287C193.849 251.226 189.288 247.746 184.306 244.95C178.805 241.817 172.919 229.111 156.018 230.542Z" fill="#BA68C8"/>
<path opacity="0.6" d="M156.018 230.542V248.725C160.303 250.099 164.438 251.896 168.361 254.091C171.785 256.022 174.93 258.404 177.712 261.171L197.853 255.287C193.849 251.226 189.288 247.746 184.306 244.95C178.805 241.817 172.919 229.111 156.018 230.542Z" fill="black"/>
<path d="M166.288 218.996L156.018 230.542C160.307 231.906 164.443 233.704 168.361 235.908C171.785 237.839 174.93 240.221 177.712 242.989L197.853 237.105C193.855 233.036 189.293 229.556 184.306 226.767C178.597 223.544 172.556 220.939 166.288 218.996Z" fill="#BA68C8"/>
<path opacity="0.3" d="M166.288 218.996L156.018 230.542C160.307 231.906 164.443 233.704 168.361 235.908C171.785 237.839 174.93 240.221 177.712 242.989L197.853 237.105C193.855 233.036 189.293 229.556 184.306 226.767C178.597 223.544 172.556 220.939 166.288 218.996Z" fill="black"/>
<path d="M177.712 242.988L197.853 237.092V255.287L177.712 261.171V242.988Z" fill="#BA68C8"/>
<path opacity="0.6" d="M177.712 242.988L197.853 237.092V255.287L177.712 261.171V242.988Z" fill="black"/>
<path d="M207.961 259.124H201.157C200.908 258.803 200.697 258.482 200.449 258.161L180.282 245.826V264.021C184.579 269.51 186.206 275.505 185.088 281.389L207.365 283.449C207.742 281.615 207.93 279.746 207.924 277.874L207.961 259.124Z" fill="#BA68C8"/>
<path opacity="0.6" d="M207.961 259.124H201.157C200.908 258.803 200.697 258.482 200.449 258.161L180.282 245.826V264.021C184.579 269.51 186.206 275.505 185.088 281.389L207.365 283.449C207.742 281.615 207.93 279.746 207.924 277.874L207.961 259.124Z" fill="black"/>
<path d="M185.076 263.281L207.365 265.267C209.178 256.718 206.881 247.923 200.436 239.979L180.27 245.863C184.566 251.352 186.255 257.36 185.076 263.281Z" fill="#BA68C8"/>
<path opacity="0.3" d="M185.076 263.281L207.365 265.267C209.178 256.718 206.881 247.923 200.436 239.979L180.27 245.863C184.566 251.352 186.255 257.36 185.076 263.281Z" fill="black"/>
<path d="M207.365 265.267V283.462L185.076 281.426V263.244L207.365 265.267Z" fill="#BA68C8"/>
<path opacity="0.6" d="M207.365 265.267V283.462L185.076 281.426V263.244L207.365 265.267Z" fill="black"/>
<path d="M115.139 245.024V226.829C102.721 221.142 79.5996 226.915 71.851 243.852L87.7953 253.005C96.3594 248.75 105.619 246.048 115.139 245.024Z" fill="#BA68C8"/>
<path opacity="0.3" d="M115.139 245.024V226.829C102.721 221.142 79.5996 226.915 71.851 243.852L87.7953 253.005C96.3594 248.75 105.619 246.048 115.139 245.024Z" fill="black"/>
<path d="M115.139 226.829L111.6 214.012C96.5869 215.69 82.8405 219.798 71.8633 225.669L87.8076 234.81C96.3679 230.557 105.623 227.854 115.139 226.829Z" fill="#BA68C8"/>
<path opacity="0.1" d="M115.139 226.829L111.6 214.012C96.5869 215.69 82.8405 219.798 71.8633 225.669L87.8076 234.81C96.3679 230.557 105.623 227.854 115.139 226.829Z" fill="black"/>
<path d="M87.7953 234.81V253.005L71.851 243.852V225.669L87.7953 234.81Z" fill="#263238"/>
<path d="M71.1183 237.104L67.84 246.122C57.1236 252.709 50.3559 260.641 47.5743 268.943L69.9262 270.966C71.9751 265.279 76.6442 259.864 83.8713 255.3V237.104H71.1183Z" fill="#BA68C8"/>
<path opacity="0.3" d="M71.1183 237.104L67.84 246.122C57.1236 252.709 50.3559 260.641 47.5743 268.943L69.9262 270.966C71.9751 265.279 76.6442 259.864 83.8713 255.3V237.104H71.1183Z" fill="black"/>
<path d="M83.8216 237.104L67.84 227.939C57.1236 234.514 50.3559 242.458 47.5743 250.748L69.9262 252.783C71.9255 247.096 76.5945 241.669 83.8216 237.104Z" fill="#BA68C8"/>
<path opacity="0.1" d="M83.8216 237.104L67.84 227.939C57.1236 234.514 50.3559 242.458 47.5743 250.748L69.9262 252.783C71.9255 247.096 76.5945 241.669 83.8216 237.104Z" fill="black"/>
<path d="M47.5743 250.748V268.943L69.8765 270.966V252.783L47.5743 250.748Z" fill="#263238"/>
<path d="M68.9949 274.161V255.966L62.3638 255.374L46.1215 259.58V277.751C46.2255 284.97 48.8602 291.928 53.5721 297.426L73.7384 291.542C69.5288 286.053 67.8897 280.045 68.9949 274.161Z" fill="#BA68C8"/>
<path opacity="0.3" d="M68.9949 274.161V255.966L62.3638 255.374L46.1215 259.58V277.751C46.2255 284.97 48.8602 291.928 53.5721 297.426L73.7384 291.542C69.5288 286.053 67.8897 280.045 68.9949 274.161Z" fill="black"/>
<path d="M53.6466 279.243L73.813 273.347V291.542L53.6466 297.426V279.243Z" fill="#263238"/>
<path d="M69.0073 255.966L46.6554 253.943C44.8424 262.504 47.1397 271.287 53.5845 279.243L73.7508 273.347C69.5288 267.857 67.8897 261.85 69.0073 255.966Z" fill="#BA68C8"/>
<path opacity="0.1" d="M69.0073 255.966L46.6554 253.943C44.8424 262.504 47.1397 271.287 53.5845 279.243L73.7508 273.347C69.5288 267.857 67.8897 261.85 69.0073 255.966Z" fill="black"/>
<path d="M92.8617 297.401C83.4118 291.986 78.6931 284.893 78.6931 277.8V259.58H175.39V277.763C175.39 284.868 170.671 291.961 161.221 297.377C142.346 308.232 111.749 308.232 92.8617 297.401Z" fill="#37474F"/>
<path d="M127.048 287.335C153.746 287.335 175.39 274.92 175.39 259.605C175.39 244.29 153.746 231.874 127.048 231.874C100.349 231.874 78.7056 244.29 78.7056 259.605C78.7056 274.92 100.349 287.335 127.048 287.335Z" fill="#455A64"/>
<path d="M87.7953 302.607V300.288L56.217 282.117V300.288C60.2232 304.352 64.7885 307.833 69.7772 310.625C75.4862 313.848 81.5268 316.454 87.7953 318.397L98.0523 306.85C94.5248 305.71 91.0949 304.291 87.7953 302.607Z" fill="#BA68C8"/>
<path opacity="0.3" d="M87.7953 302.607V300.288L56.217 282.117V300.288C60.2232 304.352 64.7885 307.833 69.7772 310.625C75.4862 313.848 81.5268 316.454 87.7953 318.397L98.0523 306.85C94.5248 305.71 91.0949 304.291 87.7953 302.607Z" fill="black"/>
<path d="M85.6718 283.302C82.2443 281.375 79.0948 278.998 76.3089 276.233L56.1674 282.117C60.1767 286.178 64.7415 289.658 69.7275 292.455C75.439 295.673 81.4791 298.278 87.7456 300.226L98.0026 288.667C93.7178 287.304 89.5858 285.506 85.6718 283.302Z" fill="#BA68C8"/>
<path opacity="0.1" d="M85.6718 283.302C82.2443 281.375 79.0948 278.998 76.3089 276.233L56.1674 282.117C60.1767 286.178 64.7415 289.658 69.7275 292.455C75.439 295.673 81.4791 298.278 87.7456 300.226L98.0026 288.667C93.7178 287.304 89.5858 285.506 85.6718 283.302Z" fill="black"/>
<path d="M87.7953 318.409V300.226L98.0523 288.667V306.863L87.7953 318.409Z" fill="#263238"/>
<path d="M92.812 301.694V319.889C107.192 323.607 122.089 324.949 136.907 323.861V305.678L92.812 301.694Z" fill="#BA68C8"/>
<path opacity="0.1" d="M92.812 301.694V319.889C107.192 323.607 122.089 324.949 136.907 323.861V305.678L92.812 301.694Z" fill="black"/>
<path d="M103.057 290.135L92.7872 301.694C107.167 305.41 122.064 306.756 136.883 305.678L133.381 292.886C123.19 293.543 112.959 292.615 103.057 290.135Z" fill="#BA68C8"/>
<path opacity="0.2" d="M103.057 290.135L92.7872 301.694C107.167 305.41 122.064 306.756 136.883 305.678L133.381 292.886C123.19 293.543 112.959 292.615 103.057 290.135Z" fill="white"/>
<path d="M170.261 300.288L186.255 309.466C196.972 302.891 203.739 294.947 206.521 286.645V268.462L184.169 284.622C182.157 290.308 177.488 295.736 170.261 300.288Z" fill="#BA68C8"/>
<path opacity="0.1" d="M170.261 300.288L186.255 309.466C196.972 302.891 203.739 294.947 206.521 286.645V268.462L184.169 284.622C182.157 290.308 177.488 295.736 170.261 300.288Z" fill="black"/>
<path d="M170.261 282.105L186.255 291.283C196.972 284.696 203.739 276.764 206.521 268.462L184.169 266.439C182.157 272.125 177.488 277.541 170.261 282.105Z" fill="#BA68C8"/>
<path opacity="0.2" d="M170.261 282.105L186.255 291.283C196.972 284.696 203.739 276.764 206.521 268.462L184.169 266.439C182.157 272.125 177.488 277.541 170.261 282.105Z" fill="white"/>
<path d="M186.243 291.283V309.465L170.261 300.3V282.105L186.243 291.283Z" fill="#BA68C8"/>
<path opacity="0.3" d="M186.243 291.283V309.465L170.261 300.3V282.105L186.243 291.283Z" fill="black"/>
<path d="M142.483 305.222V310.156C141.303 310.341 140.136 310.502 138.944 310.638L142.483 323.442C156.95 321.838 170.783 317.953 182.22 311.809V293.565L142.483 305.222Z" fill="#BA68C8"/>
<path opacity="0.1" d="M142.483 305.222V310.156C141.303 310.341 140.136 310.502 138.944 310.638L142.483 323.442C156.95 321.838 170.783 317.953 182.22 311.809V293.565L142.483 305.222Z" fill="black"/>
<path d="M138.944 292.393L142.483 305.222C156.95 303.619 170.783 299.745 182.22 293.602L166.238 284.424C157.695 288.687 148.45 291.387 138.944 292.393Z" fill="#BA68C8"/>
<path opacity="0.2" d="M138.944 292.393L142.483 305.222C156.95 303.619 170.783 299.745 182.22 293.602L166.238 284.424C157.695 288.687 148.45 291.387 138.944 292.393Z" fill="white"/>
<path d="M142.483 305.185V323.368L138.944 310.588V292.393L142.483 305.185Z" fill="#BA68C8"/>
<path opacity="0.3" d="M142.483 305.185V323.368L138.944 310.588V292.393L142.483 305.185Z" fill="black"/>
<path d="M452.379 183.518C452.335 182.716 452.102 181.936 451.699 181.239C451.295 180.543 450.733 179.95 450.057 179.509L416.43 160.229C415.188 159.489 414.108 160.093 414.108 161.573V193.856C414.15 194.658 414.382 195.44 414.786 196.136C415.189 196.833 415.753 197.425 416.43 197.865L430.512 205.932L434.957 223.807C434.942 224.134 435.059 224.453 435.281 224.695C435.504 224.937 435.814 225.081 436.143 225.096C436.472 225.11 436.794 224.995 437.037 224.774C437.281 224.553 437.426 224.245 437.441 223.918L441.514 212.236L450.119 217.17C451.361 217.91 452.441 217.306 452.441 215.838L452.379 183.518Z" fill="#BA68C8"/>
<path opacity="0.5" d="M452.379 183.518C452.335 182.716 452.102 181.936 451.699 181.239C451.295 180.543 450.733 179.95 450.057 179.509L416.43 160.229C415.188 159.489 414.108 160.093 414.108 161.573V193.856C414.15 194.658 414.382 195.44 414.786 196.136C415.189 196.833 415.753 197.425 416.43 197.865L430.512 205.932L434.957 223.807C434.942 224.134 435.059 224.453 435.281 224.695C435.504 224.937 435.814 225.081 436.143 225.096C436.472 225.11 436.794 224.995 437.037 224.774C437.281 224.553 437.426 224.245 437.441 223.918L441.514 212.236L450.119 217.17C451.361 217.91 452.441 217.306 452.441 215.838L452.379 183.518Z" fill="white"/>
<path d="M426.848 174.933C427.535 175.321 428.169 175.793 428.736 176.339C429.243 176.829 429.696 177.371 430.089 177.955C430.43 178.472 430.71 179.027 430.921 179.608C431.096 180.102 431.209 180.616 431.257 181.138C431.257 181.668 431.319 182.223 431.319 182.803C431.319 183.383 431.319 183.913 431.257 184.406C431.226 184.804 431.112 185.191 430.921 185.541C430.735 185.865 430.441 186.114 430.089 186.244C429.646 186.365 429.179 186.365 428.736 186.244C428.068 186.091 427.43 185.828 426.848 185.467C426.159 185.084 425.52 184.615 424.948 184.073C424.44 183.598 423.989 183.063 423.607 182.482C422.958 181.528 422.553 180.432 422.428 179.287C422.428 178.757 422.428 178.202 422.428 177.622C422.428 177.042 422.428 176.512 422.428 176.031C422.466 175.629 422.584 175.239 422.775 174.883C422.955 174.554 423.252 174.304 423.607 174.18C424.041 174.044 424.504 174.023 424.948 174.119C425.625 174.277 426.268 174.552 426.848 174.933ZM438.72 182.445C438.847 182.352 438.997 182.297 439.154 182.285C439.38 182.299 439.598 182.372 439.788 182.494L441.563 183.518C441.767 183.633 441.944 183.789 442.085 183.975C442.201 184.133 442.266 184.322 442.271 184.517C442.276 184.558 442.276 184.6 442.271 184.641C442.249 184.687 442.22 184.728 442.184 184.764L427.556 195.496C427.429 195.59 427.279 195.65 427.122 195.669C426.894 195.654 426.675 195.577 426.488 195.447L424.712 194.435C424.506 194.319 424.328 194.159 424.191 193.967C424.071 193.814 424.002 193.629 423.992 193.436C423.983 193.391 423.983 193.345 423.992 193.3C424.01 193.252 424.04 193.21 424.079 193.177L438.72 182.445ZM428.413 182.445C428.43 182.265 428.43 182.083 428.413 181.902V180.311C428.43 180.118 428.43 179.924 428.413 179.731C428.373 179.298 428.242 178.878 428.028 178.498C427.742 178.036 427.334 177.66 426.848 177.412C426.277 177.079 425.88 176.993 425.607 177.141C425.489 177.234 425.394 177.353 425.327 177.487C425.261 177.621 425.225 177.768 425.222 177.918C425.222 178.029 425.222 178.202 425.222 178.461C425.222 178.72 425.222 178.966 425.222 179.238C425.222 179.509 425.222 179.781 425.222 180.04C425.222 180.299 425.222 180.496 425.222 180.632C425.268 181.064 425.399 181.483 425.607 181.865C425.911 182.335 426.341 182.71 426.848 182.951C427.42 183.284 427.817 183.37 428.028 183.222C428.14 183.133 428.232 183.021 428.296 182.893C428.36 182.765 428.396 182.625 428.401 182.482L428.413 182.445ZM439.663 192.573C440.354 192.96 440.992 193.433 441.563 193.979C442.067 194.469 442.516 195.011 442.904 195.595C443.255 196.106 443.535 196.662 443.736 197.248C443.909 197.743 444.026 198.256 444.084 198.778C444.084 199.308 444.084 199.863 444.084 200.443C444.084 201.023 444.084 201.553 444.084 202.046C444.046 202.444 443.928 202.83 443.736 203.181C443.652 203.347 443.534 203.495 443.391 203.616C443.249 203.737 443.083 203.828 442.904 203.884C442.467 204.012 442.001 204.012 441.563 203.884C440.891 203.731 440.249 203.468 439.663 203.107C438.978 202.724 438.343 202.255 437.776 201.713C437.267 201.234 436.813 200.701 436.422 200.122C436.079 199.606 435.8 199.051 435.59 198.469C435.417 197.975 435.304 197.461 435.255 196.939C435.255 196.397 435.255 195.842 435.255 195.262C435.255 194.682 435.255 194.152 435.255 193.671C435.284 193.269 435.398 192.878 435.59 192.523C435.773 192.197 436.068 191.947 436.422 191.82C436.867 191.712 437.331 191.712 437.776 191.82C438.447 191.971 439.086 192.238 439.663 192.61V192.573ZM441.24 200.122C441.25 199.941 441.25 199.76 441.24 199.579V198.025C441.24 197.778 441.24 197.581 441.24 197.458C441.189 197.027 441.058 196.609 440.855 196.224C440.547 195.758 440.118 195.383 439.614 195.138C439.043 194.805 438.645 194.719 438.434 194.867C438.317 194.961 438.221 195.079 438.155 195.213C438.088 195.348 438.052 195.495 438.049 195.644C438.036 195.825 438.036 196.006 438.049 196.187C438.049 196.434 438.049 196.693 438.049 196.964C438.049 197.236 438.049 197.507 438.049 197.778C438.037 197.971 438.037 198.165 438.049 198.358C438.088 198.792 438.219 199.212 438.434 199.592C438.717 200.057 439.126 200.433 439.614 200.677C440.185 201.01 440.582 201.097 440.855 200.949C440.972 200.851 441.067 200.731 441.133 200.595C441.199 200.459 441.236 200.31 441.24 200.159V200.122Z" fill="#FAFAFA"/>
<path d="M306.906 59.7425C306.861 58.9406 306.627 58.1603 306.224 57.4641C305.821 56.7679 305.259 56.1752 304.584 55.7334L270.957 36.4651C269.715 35.725 268.634 36.3171 268.634 37.7974V70.0798C268.678 70.8839 268.91 71.6666 269.314 72.3651C269.717 73.0636 270.28 73.6582 270.957 74.1012L285.038 82.1687L289.484 100.006C289.532 100.282 289.674 100.534 289.886 100.719C290.098 100.905 290.368 101.013 290.65 101.026C290.932 101.039 291.21 100.956 291.438 100.791C291.666 100.625 291.831 100.388 291.905 100.117L295.978 88.4352L304.584 93.3695C305.825 94.1096 306.906 93.5175 306.906 92.0372V59.7425Z" fill="#BA68C8"/>
<path opacity="0.5" d="M306.906 59.7425C306.861 58.9406 306.627 58.1603 306.224 57.4641C305.821 56.7679 305.259 56.1752 304.584 55.7334L270.957 36.4651C269.715 35.725 268.634 36.3171 268.634 37.7974V70.0798C268.678 70.8839 268.91 71.6666 269.314 72.3651C269.717 73.0636 270.28 73.6582 270.957 74.1012L285.038 82.1687L289.484 100.006C289.532 100.282 289.674 100.534 289.886 100.719C290.098 100.905 290.368 101.013 290.65 101.026C290.932 101.039 291.21 100.956 291.438 100.791C291.666 100.625 291.831 100.388 291.905 100.117L295.978 88.4352L304.584 93.3695C305.825 94.1096 306.906 93.5175 306.906 92.0372V59.7425Z" fill="white"/>
<path d="M281.375 51.2062C282.061 51.594 282.695 52.0665 283.262 52.6124C283.766 53.1052 284.22 53.6465 284.616 54.2284C284.962 54.7427 285.241 55.298 285.448 55.8814C285.623 56.3755 285.735 56.8893 285.783 57.411C285.783 57.9414 285.845 58.4965 285.845 59.0763C285.845 59.6561 285.845 60.1865 285.783 60.6799C285.755 61.0816 285.64 61.4727 285.448 61.8272C285.268 62.153 284.971 62.3996 284.616 62.5179C284.179 62.6596 283.711 62.6809 283.262 62.5796C282.592 62.4259 281.954 62.1589 281.375 61.7901C280.683 61.4106 280.044 60.9419 279.475 60.3962C278.966 59.9204 278.516 59.3862 278.134 58.8049C277.783 58.2934 277.503 57.7375 277.302 57.1519C277.129 56.6564 277.013 56.1434 276.954 55.6223C276.954 55.0796 276.954 54.5244 276.954 53.957C276.954 53.3896 276.954 52.8345 276.954 52.3534C276.993 51.9519 277.111 51.5619 277.302 51.2062C277.482 50.8772 277.778 50.6265 278.134 50.503C278.574 50.3939 279.035 50.3939 279.475 50.503C280.144 50.6267 280.787 50.8646 281.375 51.2062ZM293.246 58.7186C293.376 58.6314 293.525 58.5764 293.681 58.5582C293.908 58.573 294.128 58.6499 294.314 58.7802L296.09 59.7918C296.291 59.9103 296.468 60.0651 296.611 60.2482C296.726 60.4068 296.791 60.5957 296.798 60.791C296.803 60.8361 296.803 60.8816 296.798 60.9267C296.773 60.9706 296.744 61.0119 296.711 61.05L282.083 71.782C281.953 71.8692 281.804 71.9242 281.648 71.9424C281.42 71.9276 281.201 71.8507 281.015 71.7204L279.239 70.7088C279.033 70.5971 278.855 70.4412 278.718 70.2524C278.603 70.0938 278.538 69.9049 278.531 69.7096C278.52 69.6693 278.52 69.6266 278.531 69.5863C278.548 69.5344 278.578 69.4877 278.618 69.4506L293.246 58.7186ZM282.94 58.7186C282.958 58.5381 282.958 58.3563 282.94 58.1758V56.5845C282.956 56.3957 282.956 56.2058 282.94 56.0171C282.903 55.583 282.772 55.162 282.555 54.7835C282.273 54.3149 281.864 53.9345 281.375 53.6856C280.804 53.3649 280.406 53.2662 280.133 53.4266C280.018 53.5224 279.925 53.641 279.858 53.7749C279.792 53.9087 279.754 54.0547 279.748 54.2037C279.748 54.3024 279.748 54.4874 279.748 54.7342C279.748 54.9809 279.748 55.2399 279.748 55.5236C279.748 55.8074 279.748 56.0664 279.748 56.3254C279.748 56.5845 279.748 56.7819 279.748 56.9052C279.797 57.3369 279.927 57.7555 280.133 58.1388C280.438 58.608 280.868 58.9839 281.375 59.2243C281.946 59.5574 282.343 59.6437 282.555 59.4957C282.669 59.4077 282.763 59.2958 282.83 59.168C282.896 59.0401 282.934 58.8994 282.94 58.7556V58.7186ZM294.19 68.8461C294.883 69.234 295.522 69.711 296.09 70.2647C296.596 70.7475 297.046 71.2855 297.431 71.8684C297.779 72.3812 298.059 72.9368 298.263 73.5213C298.434 74.0172 298.551 74.5301 298.611 75.051C298.611 75.5937 298.611 76.1488 298.611 76.7286C298.611 77.3084 298.611 77.8388 298.611 78.3199C298.572 78.7214 298.454 79.1114 298.263 79.4671C298.083 79.7961 297.787 80.0468 297.431 80.1703C296.992 80.2924 296.528 80.2924 296.09 80.1703C295.418 80.0165 294.776 79.754 294.19 79.3931C293.509 79.0022 292.876 78.5344 292.302 77.9992C291.796 77.5133 291.342 76.9757 290.949 76.3956C290.608 75.8785 290.329 75.3238 290.117 74.7426C289.942 74.2484 289.829 73.7346 289.782 73.213C289.782 72.6825 289.72 72.1274 289.72 71.5477C289.72 70.9679 289.72 70.4374 289.782 69.944C289.812 69.5426 289.926 69.1518 290.117 68.7968C290.303 68.4761 290.598 68.2313 290.949 68.106C291.386 67.9661 291.852 67.9406 292.302 68.032C292.976 68.2054 293.615 68.4934 294.19 68.8832V68.8461ZM295.767 76.3956C295.777 76.2148 295.777 76.0336 295.767 75.8528V74.2985C295.767 74.0518 295.767 73.8544 295.767 73.7311C295.724 73.2982 295.593 72.8785 295.382 72.4975C295.078 72.0245 294.648 71.6445 294.14 71.3996C293.569 71.0789 293.172 70.9802 292.961 71.1406C292.841 71.2325 292.744 71.3503 292.678 71.485C292.611 71.6196 292.576 71.7676 292.576 71.9177C292.562 72.0943 292.562 72.2716 292.576 72.4482C292.576 72.6949 292.576 72.9539 292.576 73.2376C292.576 73.5214 292.576 73.7804 292.576 74.0394C292.563 74.2325 292.563 74.4262 292.576 74.6192C292.612 75.0533 292.744 75.4743 292.961 75.8528C293.242 76.3214 293.651 76.7018 294.14 76.9507C294.712 77.2714 295.125 77.3577 295.382 77.2097C295.5 77.116 295.595 76.9978 295.661 76.8636C295.728 76.7293 295.764 76.5822 295.767 76.4326V76.3956Z" fill="#FAFAFA"/>
<path d="M76.0358 182.519C76.0799 181.717 76.313 180.936 76.7163 180.24C77.1197 179.544 77.6819 178.951 78.3579 178.51L111.985 159.229C113.227 158.489 114.307 159.094 114.307 160.574V192.856C114.265 193.659 114.033 194.44 113.629 195.137C113.226 195.834 112.662 196.426 111.985 196.866L97.9033 204.933L93.4578 222.783C93.4726 223.11 93.356 223.43 93.1336 223.671C92.9112 223.913 92.6012 224.057 92.2719 224.072C91.9426 224.087 91.6208 223.971 91.3775 223.75C91.1341 223.529 90.9891 223.221 90.9743 222.894L86.9137 211.212L78.3082 216.146C77.0664 216.886 75.9861 216.282 75.9861 214.814L76.0358 182.519Z" fill="#BA68C8"/>
<g opacity="0.5">
<path d="M76.0358 182.519C76.0799 181.717 76.313 180.936 76.7163 180.24C77.1197 179.544 77.6819 178.951 78.3579 178.51L111.985 159.229C113.227 158.489 114.307 159.094 114.307 160.574V192.856C114.265 193.659 114.033 194.44 113.629 195.137C113.226 195.834 112.662 196.426 111.985 196.866L97.9033 204.933L93.4578 222.783C93.4726 223.11 93.356 223.43 93.1336 223.671C92.9112 223.913 92.6012 224.057 92.2719 224.072C91.9426 224.087 91.6208 223.971 91.3775 223.75C91.1341 223.529 90.9891 223.221 90.9743 222.894L86.9137 211.212L78.3082 216.146C77.0664 216.886 75.9861 216.282 75.9861 214.814L76.0358 182.519Z" fill="white"/>
</g>
<path d="M87.7829 180.114C88.455 179.699 89.1945 179.402 89.9684 179.238C90.4881 179.133 91.0257 179.159 91.533 179.312C91.9412 179.458 92.2813 179.748 92.4892 180.126C92.7113 180.533 92.8426 180.984 92.8741 181.446C92.9238 182.013 92.9486 182.63 92.9486 183.296C92.9486 183.962 92.9238 184.604 92.8741 185.221C92.8198 185.826 92.6905 186.423 92.4892 186.997C92.2512 187.667 91.93 188.305 91.533 188.897C91.0837 189.57 90.5588 190.191 89.9684 190.747C89.3085 191.372 88.5746 191.914 87.7829 192.363C87.1026 192.776 86.3608 193.08 85.5849 193.263C85.0709 193.377 84.536 193.356 84.0327 193.202C83.6246 193.056 83.2845 192.766 83.0766 192.388C82.8505 191.981 82.715 191.531 82.6792 191.068C82.6792 190.5 82.6792 189.834 82.6792 189.217C82.6792 188.601 82.6792 187.91 82.6792 187.293C82.7386 186.687 82.872 186.091 83.0766 185.517C83.3094 184.844 83.6309 184.205 84.0327 183.617C84.4843 182.945 85.0045 182.321 85.5849 181.754C86.2476 181.121 86.9857 180.57 87.7829 180.114ZM101.442 173.07C101.583 172.8 101.75 172.544 101.939 172.305C102.148 172.068 102.396 171.868 102.672 171.713L104.733 170.48C104.904 170.354 105.119 170.301 105.329 170.331C105.478 170.331 105.553 170.492 105.553 170.689C105.561 170.755 105.561 170.821 105.553 170.887L105.453 171.146L88.5404 202.947C88.3995 203.213 88.2332 203.465 88.0437 203.699C87.8374 203.939 87.5892 204.14 87.311 204.292L85.2621 205.525C85.0859 205.65 84.868 205.703 84.6536 205.673C84.5046 205.673 84.4301 205.513 84.4301 205.315C84.4214 205.25 84.4214 205.184 84.4301 205.118L84.5294 204.859L101.442 173.07ZM89.5959 186.8C89.6128 186.578 89.6128 186.355 89.5959 186.133V184.295C89.6138 184.086 89.6138 183.876 89.5959 183.666C89.5891 183.493 89.5458 183.324 89.4687 183.169C89.3917 183.014 89.2827 182.876 89.1488 182.766C88.9005 182.593 88.441 182.766 87.7829 183.074C87.2749 183.328 86.8414 183.708 86.5239 184.177C86.2063 184.646 86.0156 185.188 85.9699 185.751C85.9517 185.977 85.9517 186.204 85.9699 186.429C85.9699 186.726 85.9699 187.034 85.9699 187.355C85.9699 187.675 85.9699 187.971 85.9699 188.268C85.9505 188.473 85.9505 188.679 85.9699 188.884C85.9699 189.058 86.0102 189.23 86.0877 189.386C86.1652 189.542 86.2779 189.679 86.4169 189.785C86.6653 189.957 87.1123 189.846 87.7829 189.476C88.3432 189.197 88.8157 188.77 89.1488 188.243C89.3961 187.797 89.5483 187.306 89.5959 186.8ZM102.597 183.592C103.275 183.177 104.018 182.877 104.795 182.704C105.311 182.6 105.844 182.625 106.347 182.778C106.755 182.924 107.096 183.214 107.304 183.592C107.53 183.999 107.665 184.449 107.701 184.912C107.701 185.48 107.763 186.146 107.763 186.763C107.763 187.379 107.763 188.07 107.701 188.687C107.642 189.293 107.509 189.89 107.304 190.463C107.068 191.139 106.747 191.781 106.347 192.375C105.396 193.802 104.12 194.985 102.622 195.829C101.948 196.245 101.209 196.55 100.437 196.73C99.9189 196.85 99.3783 196.829 98.8719 196.668C98.4613 196.526 98.1199 196.235 97.9157 195.854C97.6922 195.447 97.5608 194.997 97.5308 194.534C97.5308 193.979 97.4563 193.3 97.4563 192.696C97.4563 192.092 97.4563 191.376 97.5308 190.759C97.5844 190.158 97.7137 189.565 97.9157 188.995C98.1536 188.321 98.4748 187.679 98.8719 187.083C99.3241 186.408 99.8487 185.783 100.437 185.221C101.079 184.573 101.806 184.013 102.597 183.555V183.592ZM104.41 190.229C104.427 190.007 104.427 189.784 104.41 189.563V187.737C104.428 187.528 104.428 187.317 104.41 187.108C104.411 186.934 104.371 186.762 104.294 186.605C104.216 186.449 104.103 186.313 103.963 186.207C103.715 186.035 103.268 186.133 102.597 186.516C102.039 186.798 101.567 187.224 101.231 187.749C100.991 188.189 100.84 188.671 100.784 189.168C100.772 189.39 100.772 189.612 100.784 189.834C100.784 190.143 100.784 190.451 100.784 190.759C100.784 191.068 100.784 191.388 100.784 191.672C100.771 191.878 100.771 192.084 100.784 192.289C100.791 192.462 100.834 192.631 100.911 192.786C100.988 192.942 101.097 193.079 101.231 193.189C101.48 193.362 101.939 193.263 102.597 192.881C103.158 192.602 103.63 192.175 103.963 191.647C104.219 191.201 104.372 190.704 104.41 190.192V190.229Z" fill="#FAFAFA"/>
</svg>
